<svg width="17" height="27" viewBox="0 0 17 27" fill="none" xmlns="http://www.w3.org/2000/svg">
<path d="M16.7917 1.10205C16.7917 0.90866 16.7148 0.723194 16.5781 0.586449C16.4414 0.449704 16.2559 0.372881 16.0625 0.372881H12.4167C10.5808 0.28143 8.78337 0.920327 7.41709 2.14998C6.05082 3.37963 5.22677 5.10006 5.125 6.93538V10.8729H1.47917C1.28578 10.8729 1.10031 10.9497 0.963568 11.0864C0.826823 11.2232 0.75 11.4087 0.75 11.602V15.3937C0.75 15.5871 0.826823 15.7726 0.963568 15.9093C1.10031 16.0461 1.28578 16.1229 1.47917 16.1229H5.125V25.8937C5.125 26.0871 5.20182 26.2726 5.33857 26.4093C5.47531 26.5461 5.66078 26.6229 5.85417 26.6229H10.2292C10.4226 26.6229 10.608 26.5461 10.7448 26.4093C10.8815 26.2726 10.9583 26.0871 10.9583 25.8937V16.1229H14.7792C14.9413 16.1252 15.0996 16.0734 15.229 15.9757C15.3585 15.878 15.4516 15.7399 15.4937 15.5833L16.5437 11.7916C16.5728 11.6839 16.5767 11.5709 16.5551 11.4614C16.5336 11.352 16.4873 11.2489 16.4197 11.1601C16.352 11.0714 16.265 10.9993 16.1651 10.9495C16.0653 10.8997 15.9553 10.8735 15.8438 10.8729H10.9583V6.93538C10.9946 6.57441 11.1641 6.23992 11.4338 5.99723C11.7034 5.75453 12.0539 5.62106 12.4167 5.62288H16.0625C16.2559 5.62288 16.4414 5.54606 16.5781 5.40931C16.7148 5.27257 16.7917 5.0871 16.7917 4.89371V1.10205Z" fill="white"/>
</svg>
