<svg width="31" height="31" viewBox="0 0 31 31" fill="none" xmlns="http://www.w3.org/2000/svg">
<path d="M9.37533 0.914551H21.6253C26.292 0.914551 30.0837 4.70622 30.0837 9.37289V21.6229C30.0837 23.8662 29.1925 26.0176 27.6063 27.6038C26.02 29.1901 23.8686 30.0812 21.6253 30.0812H9.37533C4.70866 30.0812 0.916992 26.2896 0.916992 21.6229V9.37289C0.916992 7.1296 1.80814 4.97818 3.39438 3.39194C4.98063 1.80569 7.13204 0.914551 9.37533 0.914551ZM9.08366 3.83122C7.69127 3.83122 6.35592 4.38434 5.37135 5.36891C4.38678 6.35347 3.83366 7.68883 3.83366 9.08122V21.9146C3.83366 24.8166 6.18158 27.1646 9.08366 27.1646H21.917C23.3094 27.1646 24.6447 26.6114 25.6293 25.6269C26.6139 24.6423 27.167 23.3069 27.167 21.9146V9.08122C27.167 6.17913 24.8191 3.83122 21.917 3.83122H9.08366ZM23.1566 6.01872C23.64 6.01872 24.1037 6.21077 24.4456 6.55264C24.7874 6.8945 24.9795 7.35817 24.9795 7.84163C24.9795 8.3251 24.7874 8.78877 24.4456 9.13063C24.1037 9.4725 23.64 9.66455 23.1566 9.66455C22.6731 9.66455 22.2094 9.4725 21.8676 9.13063C21.5257 8.78877 21.3337 8.3251 21.3337 7.84163C21.3337 7.35817 21.5257 6.8945 21.8676 6.55264C22.2094 6.21077 22.6731 6.01872 23.1566 6.01872ZM15.5003 8.20622C17.4342 8.20622 19.2889 8.97445 20.6563 10.3419C22.0238 11.7094 22.792 13.564 22.792 15.4979C22.792 17.4318 22.0238 19.2864 20.6563 20.6539C19.2889 22.0213 17.4342 22.7896 15.5003 22.7896C13.5665 22.7896 11.7118 22.0213 10.3443 20.6539C8.97689 19.2864 8.20866 17.4318 8.20866 15.4979C8.20866 13.564 8.97689 11.7094 10.3443 10.3419C11.7118 8.97445 13.5665 8.20622 15.5003 8.20622ZM15.5003 11.1229C14.34 11.1229 13.2272 11.5838 12.4067 12.4043C11.5863 13.2248 11.1253 14.3376 11.1253 15.4979C11.1253 16.6582 11.5863 17.771 12.4067 18.5915C13.2272 19.4119 14.34 19.8729 15.5003 19.8729C16.6606 19.8729 17.7734 19.4119 18.5939 18.5915C19.4144 17.771 19.8753 16.6582 19.8753 15.4979C19.8753 14.3376 19.4144 13.2248 18.5939 12.4043C17.7734 11.5838 16.6606 11.1229 15.5003 11.1229Z" fill="white"/>
</svg>
