<svg width="31" height="32" viewBox="0 0 31 32" fill="none" xmlns="http://www.w3.org/2000/svg">
<path d="M7.04312 31.623H0.693906V11.1765H7.04312V31.623ZM3.86469 8.38742C1.83469 8.38742 0.1875 6.70523 0.1875 4.67523C0.1875 3.69998 0.574917 2.76468 1.26452 2.07507C1.95413 1.38546 2.88944 0.998047 3.86469 0.998047C4.83994 0.998047 5.77524 1.38546 6.46485 2.07507C7.15446 2.76468 7.54187 3.69998 7.54187 4.67523C7.54187 6.70523 5.89469 8.38742 3.86469 8.38742ZM30.8059 31.623H24.4709V21.6699C24.4709 19.2976 24.4228 16.2559 21.17 16.2559C17.8691 16.2559 17.3627 18.8327 17.3627 21.4993V31.623H11.02V11.1765H17.1089V13.9655H17.1975C18.0452 12.3588 20.1156 10.6635 23.2044 10.6635C29.6302 10.6635 30.8114 14.8952 30.8114 20.3913V31.623H30.8059Z" fill="white"/>
</svg>
