<svg width="25" height="25" viewBox="0 0 25 25" fill="none" xmlns="http://www.w3.org/2000/svg">
<path d="M22.916 17.6248V20.7498C22.9172 21.0399 22.8578 21.327 22.7415 21.5928C22.6253 21.8587 22.4549 22.0973 22.2411 22.2934C22.0273 22.4895 21.7749 22.6388 21.5001 22.7318C21.2253 22.8247 20.9341 22.8592 20.6452 22.8331C17.4398 22.4848 14.3608 21.3895 11.6556 19.6352C9.13874 18.0359 7.0049 15.902 5.40559 13.3852C3.64515 10.6677 2.54959 7.57373 2.20767 4.35394C2.18164 4.06589 2.21588 3.77557 2.30819 3.50147C2.40051 3.22737 2.54889 2.97549 2.74389 2.76188C2.93888 2.54827 3.17622 2.3776 3.44079 2.26074C3.70536 2.14387 3.99136 2.08338 4.28059 2.08311H7.40559C7.91112 2.07813 8.40121 2.25715 8.78451 2.58679C9.16781 2.91643 9.41817 3.3742 9.48892 3.87478C9.62082 4.87484 9.86543 5.85678 10.2181 6.80186C10.3582 7.1747 10.3886 7.57989 10.3055 7.96944C10.2224 8.35899 10.0294 8.71656 9.74934 8.99978L8.42642 10.3227C9.90929 12.9306 12.0686 15.0898 14.6764 16.5727L15.9993 15.2498C16.2826 14.9697 16.6401 14.7767 17.0297 14.6936C17.4192 14.6105 17.8244 14.6409 18.1973 14.781C19.1423 15.1337 20.1243 15.3783 21.1243 15.5102C21.6303 15.5816 22.0925 15.8364 22.4228 16.2263C22.7532 16.6162 22.9287 17.1139 22.916 17.6248Z" stroke="white" stroke-linecap="round" stroke-linejoin="round"/>
</svg>
