<svg width="84" height="77" viewBox="0 0 84 77" fill="none" xmlns="http://www.w3.org/2000/svg">
<path d="M2.46002 2.11535C2.46002 1.44987 1.91001 0.911621 1.23 0.911621C0.549999 0.911621 0 1.44987 0 2.11535C0 2.78083 0.549999 3.31909 1.23 3.31909C1.91001 3.31909 2.46002 2.78083 2.46002 2.11535Z" fill="#0C0391"/>
<path d="M22.7003 2.11535C22.7003 1.44987 22.1503 0.911621 21.4702 0.911621C20.7902 0.911621 20.2402 1.44987 20.2402 2.11535C20.2402 2.78083 20.7902 3.31909 21.4702 3.31909C22.1503 3.31909 22.7003 2.78083 22.7003 2.11535Z" fill="#0C0391"/>
<path d="M42.9503 2.11535C42.9503 1.44987 42.4002 0.911621 41.7202 0.911621C41.0402 0.911621 40.4902 1.44987 40.4902 2.11535C40.4902 2.78083 41.0402 3.31909 41.7202 3.31909C42.4002 3.31909 42.9503 2.78083 42.9503 2.11535Z" fill="#0C0391"/>
<path d="M63.19 2.11535C63.19 1.44987 62.64 0.911621 61.96 0.911621C61.28 0.911621 60.73 1.44987 60.73 2.11535C60.73 2.78083 61.28 3.31909 61.96 3.31909C62.64 3.31909 63.19 2.78083 63.19 2.11535Z" fill="#0C0391"/>
<path d="M83.44 2.11535C83.44 1.44987 82.89 0.911621 82.21 0.911621C81.53 0.911621 80.98 1.44987 80.98 2.11535C80.98 2.78083 81.53 3.31909 82.21 3.31909C82.89 3.31909 83.44 2.78083 83.44 2.11535Z" fill="#0C0391"/>
<path d="M2.46002 20.3863C2.46002 19.7209 1.91001 19.1826 1.23 19.1826C0.549999 19.1826 0 19.7209 0 20.3863C0 21.0518 0.549999 21.5901 1.23 21.5901C1.91001 21.5901 2.46002 21.0518 2.46002 20.3863Z" fill="#EAEAEA"/>
<path d="M22.7003 20.3863C22.7003 19.7209 22.1503 19.1826 21.4702 19.1826C20.7902 19.1826 20.2402 19.7209 20.2402 20.3863C20.2402 21.0518 20.7902 21.5901 21.4702 21.5901C22.1503 21.5901 22.7003 21.0518 22.7003 20.3863Z" fill="#0C0391"/>
<path d="M42.9503 20.3863C42.9503 19.7209 42.4002 19.1826 41.7202 19.1826C41.0402 19.1826 40.4902 19.7209 40.4902 20.3863C40.4902 21.0518 41.0402 21.5901 41.7202 21.5901C42.4002 21.5901 42.9503 21.0518 42.9503 20.3863Z" fill="#0C0391"/>
<path d="M63.19 20.3863C63.19 19.7209 62.64 19.1826 61.96 19.1826C61.28 19.1826 60.73 19.7209 60.73 20.3863C60.73 21.0518 61.28 21.5901 61.96 21.5901C62.64 21.5901 63.19 21.0518 63.19 20.3863Z" fill="#0C0391"/>
<path d="M83.44 20.3863C83.44 19.7209 82.89 19.1826 82.21 19.1826C81.53 19.1826 80.98 19.7209 80.98 20.3863C80.98 21.0518 81.53 21.5901 82.21 21.5901C82.89 21.5901 83.44 21.0518 83.44 20.3863Z" fill="#0C0391"/>
<path d="M2.46002 38.6675C2.46002 38.0021 1.91001 37.4639 1.23 37.4639C0.549999 37.4639 0 38.0021 0 38.6675C0 39.3329 0.549999 39.8711 1.23 39.8711C1.91001 39.8711 2.46002 39.3329 2.46002 38.6675Z" fill="#EAEAEA"/>
<path d="M22.7003 38.6675C22.7003 38.0021 22.1503 37.4639 21.4702 37.4639C20.7902 37.4639 20.2402 38.0021 20.2402 38.6675C20.2402 39.3329 20.7902 39.8711 21.4702 39.8711C22.1503 39.8711 22.7003 39.3329 22.7003 38.6675Z" fill="#EAEAEA"/>
<path d="M42.9503 38.6675C42.9503 38.0021 42.4002 37.4639 41.7202 37.4639C41.0402 37.4639 40.4902 38.0021 40.4902 38.6675C40.4902 39.3329 41.0402 39.8711 41.7202 39.8711C42.4002 39.8711 42.9503 39.3329 42.9503 38.6675Z" fill="#0C0391"/>
<path d="M63.19 38.6675C63.19 38.0021 62.64 37.4639 61.96 37.4639C61.28 37.4639 60.73 38.0021 60.73 38.6675C60.73 39.3329 61.28 39.8711 61.96 39.8711C62.64 39.8711 63.19 39.3329 63.19 38.6675Z" fill="#0C0391"/>
<path d="M83.44 38.6675C83.44 38.0021 82.89 37.4639 82.21 37.4639C81.53 37.4639 80.98 38.0021 80.98 38.6675C80.98 39.3329 81.53 39.8711 82.21 39.8711C82.89 39.8711 83.44 39.3329 83.44 38.6675Z" fill="#0C0391"/>
<path d="M2.46002 56.9484C2.46002 56.2829 1.91001 55.7446 1.23 55.7446C0.549999 55.7446 0 56.2829 0 56.9484C0 57.6138 0.549999 58.1521 1.23 58.1521C1.91001 58.1521 2.46002 57.6138 2.46002 56.9484Z" fill="#EAEAEA"/>
<path d="M22.7002 56.9484C22.7002 56.2829 22.1502 55.7446 21.4702 55.7446C20.7902 55.7446 20.2402 56.2829 20.2402 56.9484C20.2402 57.6138 20.7902 58.1521 21.4702 58.1521C22.1502 58.1521 22.7002 57.6138 22.7002 56.9484Z" fill="#EAEAEA"/>
<path d="M42.9503 56.9484C42.9503 56.2829 42.4002 55.7446 41.7202 55.7446C41.0402 55.7446 40.4902 56.2829 40.4902 56.9484C40.4902 57.6138 41.0402 58.1521 41.7202 58.1521C42.4002 58.1521 42.9503 57.6138 42.9503 56.9484Z" fill="#0C0391"/>
<path d="M63.19 56.9484C63.19 56.2829 62.64 55.7446 61.96 55.7446C61.28 55.7446 60.73 56.2829 60.73 56.9484C60.73 57.6138 61.28 58.1521 61.96 58.1521C62.64 58.1521 63.19 57.6138 63.19 56.9484Z" fill="#0C0391"/>
<path d="M83.44 56.9484C83.44 56.2829 82.89 55.7446 82.21 55.7446C81.53 55.7446 80.98 56.2829 80.98 56.9484C80.98 57.6138 81.53 58.1521 82.21 58.1521C82.89 58.1521 83.44 57.6138 83.44 56.9484Z" fill="#0C0391"/>
<path d="M2.46002 75.2203C2.46002 74.5549 1.91001 74.0166 1.23 74.0166C0.549999 74.0166 0 74.5549 0 75.2203C0 75.8858 0.549999 76.4241 1.23 76.4241C1.91001 76.4241 2.46002 75.8858 2.46002 75.2203Z" fill="#EAEAEA"/>
<path d="M22.7002 75.2203C22.7002 74.5549 22.1502 74.0166 21.4702 74.0166C20.7902 74.0166 20.2402 74.5549 20.2402 75.2203C20.2402 75.8858 20.7902 76.4241 21.4702 76.4241C22.1502 76.4241 22.7002 75.8858 22.7002 75.2203Z" fill="#0C0391"/>
<path d="M42.9503 75.2203C42.9503 74.5549 42.4002 74.0166 41.7202 74.0166C41.0402 74.0166 40.4902 74.5549 40.4902 75.2203C40.4902 75.8858 41.0402 76.4241 41.7202 76.4241C42.4002 76.4241 42.9503 75.8858 42.9503 75.2203Z" fill="#0C0391"/>
<path d="M63.19 75.2203C63.19 74.5549 62.64 74.0166 61.96 74.0166C61.28 74.0166 60.73 74.5549 60.73 75.2203C60.73 75.8858 61.28 76.4241 61.96 76.4241C62.64 76.4241 63.19 75.8858 63.19 75.2203Z" fill="#0C0391"/>
<path d="M83.44 75.2203C83.44 74.5549 82.89 74.0166 82.21 74.0166C81.53 74.0166 80.98 74.5549 80.98 75.2203C80.98 75.8858 81.53 76.4241 82.21 76.4241C82.89 76.4241 83.44 75.8858 83.44 75.2203Z" fill="#0C0391"/>
</svg>
