<svg width="546" height="546" viewBox="0 0 546 546" fill="none" xmlns="http://www.w3.org/2000/svg">
<path d="M273 545C423.221 545 545 423.221 545 273C545 122.779 423.221 1 273 1C122.779 1 1 122.779 1 273C1 423.221 122.779 545 273 545Z" stroke="#00F5D8" stroke-opacity="0.18" stroke-width="2" stroke-linecap="round" stroke-linejoin="round" stroke-dasharray="4 4"/>
<path d="M273 500.739C398.776 500.739 500.738 398.777 500.738 273C500.738 147.224 398.776 45.2622 273 45.2622C147.223 45.2622 45.2616 147.224 45.2616 273C45.2616 398.777 147.223 500.739 273 500.739Z" stroke="#00F5D8" stroke-opacity="0.18" stroke-width="2" stroke-linecap="round" stroke-linejoin="round" stroke-dasharray="4 4"/>
<path d="M273 456.513C374.352 456.513 456.514 374.351 456.514 272.999C456.514 171.648 374.352 89.4858 273 89.4858C171.649 89.4858 89.4869 171.648 89.4869 272.999C89.4869 374.351 171.649 456.513 273 456.513Z" stroke="#00F5D8" stroke-opacity="0.18" stroke-width="2" stroke-linecap="round" stroke-linejoin="round" stroke-dasharray="4 4"/>
<path d="M273 412.288C349.927 412.288 412.289 349.927 412.289 272.999C412.289 196.072 349.927 133.71 273 133.71C196.073 133.71 133.711 196.072 133.711 272.999C133.711 349.927 196.073 412.288 273 412.288Z" stroke="#00F5D8" stroke-opacity="0.18" stroke-width="2" stroke-linecap="round" stroke-linejoin="round" stroke-dasharray="4 4"/>
<path d="M343.531 336.763C378.761 297.833 375.76 237.714 336.829 202.485C297.899 167.256 237.78 170.256 202.551 209.187C167.322 248.118 170.322 308.236 209.253 343.465C248.184 378.695 308.302 375.694 343.531 336.763Z" stroke="#00F5D8" stroke-opacity="0.18" stroke-width="2" stroke-linecap="round" stroke-linejoin="round" stroke-dasharray="4 4"/>
</svg>
