<svg width="132" height="7" viewBox="0 0 132 7" fill="none" xmlns="http://www.w3.org/2000/svg">
<path d="M126.33 3.77968C125.608 3.53662 125.506 3.36346 125.838 2.85921C125.862 2.80454 125.835 2.72859 125.735 2.68605C125.436 2.55845 125.699 2.21824 126.431 1.88412C127.383 1.44977 128.291 1.2554 129.451 1.29799C130.685 1.30717 130.735 1.32844 131.044 1.84791C131.173 2.09701 131.177 2.22764 131.127 2.20637C131.027 2.16384 131.007 2.34914 131.06 2.50103C131.282 3.50047 128.022 4.37213 126.33 3.77968ZM120.608 1.85648C120.408 1.77141 119.397 1.79262 118.386 1.81383C117.352 1.88972 116.467 2.02941 116.42 2.13877C116.324 2.22686 116.151 2.21774 116.001 2.15394C115.652 2.00507 112.476 2.26615 112.283 2.44233C112.187 2.53042 112.063 2.54256 111.964 2.50003C111.864 2.4575 110.953 2.52124 109.918 2.59713C108.269 2.73375 107.554 2.75194 105.262 2.87333C105.016 2.89761 103.982 2.9735 102.971 2.99471C101.936 3.07061 101.025 3.13435 100.925 3.09181C100.875 3.07055 100.16 3.08874 99.3721 3.14034C96.9575 3.27388 92.1951 3.24629 91.7961 3.07615C91.5966 2.99108 91.1711 2.745 90.7954 2.52019C90.1439 2.11309 88.1652 1.91554 88.0253 2.24361C87.9787 2.35297 87.9055 2.38637 87.8789 2.31043C87.8524 2.23448 87.2837 2.18585 86.6185 2.22531C85.9534 2.26476 85.0654 2.27383 84.6962 2.31026C84.2771 2.32543 83.3659 2.38918 82.6275 2.46204C81.8891 2.53491 81.2473 2.51969 81.1475 2.47715C81.0478 2.43462 80.7285 2.49232 80.3859 2.6047C80.0432 2.71708 79.7971 2.74137 79.7207 2.64416C79.6941 2.56821 79.1255 2.51958 78.437 2.61371C77.7718 2.65317 76.6876 2.70779 76.0457 2.69257C75.4039 2.67734 73.3585 2.77445 71.486 2.88067C66.7799 3.1356 61.4786 3.26595 59.8491 3.21726C59.1075 3.1595 58.4423 3.19896 58.3957 3.30831C58.349 3.41767 58.2758 3.45108 58.1994 3.35387C58.123 3.25665 57.2052 3.05915 56.1178 2.98315C55.0536 2.85247 53.5672 2.60633 52.9454 2.40581C50.6578 1.68878 50.0127 1.54293 47.8611 1.33625C44.0734 0.819632 38.5228 0.843646 29.8755 1.35657C23.7659 1.72382 14.9555 2.6195 11.5162 3.2208C10.7546 3.34835 8.78884 3.67329 7.06924 3.97394C5.37295 4.21991 3.94934 4.51753 3.92603 4.57221C3.90271 4.62689 3.51021 4.718 3.16435 4.69976C2.76861 4.66025 2.27637 4.70882 2.12999 4.77565C1.93375 4.8212 1.59112 4.93358 1.345 4.95787C1.09888 4.98216 0.90587 5.15834 0.859237 5.2677C0.812603 5.37705 0.716098 5.46514 0.616355 5.42261C0.366996 5.31627 0.253651 5.72029 0.366348 6.28532C0.499122 6.66505 0.675292 6.80479 1.1209 6.86557C1.44345 6.9385 1.78931 6.95674 1.88581 6.86865C1.959 6.83524 2.30163 6.72286 2.67081 6.68643C3.03999 6.64999 4.95908 6.43441 6.97468 6.13074C14.4515 5.18335 15.6323 5.04064 21.589 4.47896C30.4992 3.62581 40.0344 3.10382 44.7004 3.2195C47.6635 3.3199 49.3961 3.54175 51.8035 4.11601C54.8826 4.91206 61.3776 5.1615 67.4607 4.71831C68.199 4.64544 69.383 4.63335 70.0482 4.59389C70.7632 4.5757 72.0204 4.5302 72.9316 4.46646C73.8429 4.40271 74.9272 4.34809 75.4693 4.32078C75.9382 4.32688 76.4039 4.20236 76.4272 4.14768C76.4505 4.093 76.7698 4.0353 77.0425 4.08695C77.3651 4.15988 78.0801 4.14169 78.6954 4.08096C79.3107 4.02024 79.8528 3.99293 79.9027 4.0142C80.0024 4.05673 81.5789 3.95353 84.4857 3.77142C85.5932 3.66212 86.6043 3.6409 86.6541 3.66217C86.704 3.68344 87.4191 3.66525 88.2572 3.63491C89.5875 3.556 89.7604 3.56512 90.2656 4.03904C90.8971 4.63144 92.0409 4.98995 93.0753 4.91407C93.4445 4.87763 94.4322 4.9111 95.2968 4.95671C97.4951 5.05403 98.1868 5.09052 101.12 4.98435C102.55 4.94797 104.276 4.90858 104.918 4.9238C105.56 4.93902 106.102 4.91171 106.175 4.8783C106.249 4.84489 106.445 4.79933 106.594 4.86313C107.09 4.94517 110.811 4.78741 113.299 4.62046C116.402 4.39279 118.298 4.23189 119.259 4.18941C119.678 4.17424 120.267 4.03757 120.56 3.90393C121.441 3.63361 121.479 2.16333 120.608 1.85648Z" fill="#00F5D8" fill-opacity="0.5"/>
</svg>
