<svg width="187" height="15" viewBox="0 0 187 15" fill="none" xmlns="http://www.w3.org/2000/svg">
<path d="M177.743 4.36268C179.058 4.3028 181.906 4.3916 182.281 4.46816C183.031 4.62127 185.411 4.45047 186.117 4.18422C186.681 3.97122 186.855 3.76044 186.483 3.02822C185.925 1.92989 185.3 1.8023 180.73 1.85435C178.632 1.91866 176.801 1.95524 176.551 1.9042C176.426 1.87868 175.643 1.8831 175.002 1.83428C174.344 1.86422 173.578 1.78987 173.328 1.73884C173.078 1.6878 172.638 1.92631 172.308 2.26912C171.977 2.61192 171.836 2.66517 171.884 2.42887C172.138 1.82424 171.888 1.77321 169.415 1.76096C168.366 1.79311 167.35 1.66773 167.241 1.56344C166.914 1.25058 164.018 1.39808 163.953 1.71315C163.921 1.87068 163.671 1.81965 163.312 1.66432C162.953 1.509 162.202 1.35589 161.545 1.38583C160.888 1.41577 159.98 1.39467 159.48 1.2926C158.979 1.19052 158.181 1.27372 157.648 1.32918C157.241 1.41016 156.834 1.49113 156.866 1.3336C156.882 1.25483 156.382 1.15276 155.849 1.20822C155.317 1.26368 154.55 1.18933 154.441 1.08505C154.207 0.955244 153.816 0.957452 153.268 1.09168C152.719 1.22591 152.203 1.2026 151.953 1.15157C151.452 1.04949 149.903 0.979569 145.724 1.02942C144.034 1.01274 141.562 1.00049 140.154 0.877322C138.746 0.754152 137.306 0.788518 136.898 0.869497C136.475 1.02924 136.1 0.952687 135.866 0.822882C135.648 0.61431 135.131 0.591003 134.708 0.750749C134.16 0.884977 133.627 0.940437 133.393 0.810633C132.893 0.708557 132.376 0.68525 130.154 0.724038C129.48 0.832748 128.839 0.783924 128.48 0.6286C128.105 0.552044 127.713 0.554253 127.556 0.686271C127.399 0.818288 126.741 0.84823 125.991 0.695116C125.241 0.542003 124.067 0.54864 123.409 0.578582C122.627 0.583005 119.622 0.626215 116.633 0.590658C113.519 0.529583 109.997 0.54949 108.557 0.583855C107.242 0.643739 105.802 0.678104 105.302 0.576028C104.552 0.422915 97.1014 0.543705 96.6779 0.703453C96.6619 0.782221 96.1455 0.758913 95.7703 0.682357C95.3951 0.605801 94.7377 0.635742 94.3303 0.716722C93.9069 0.87647 93.2816 0.748875 92.9224 0.593551C92.5633 0.438227 92.4222 0.491479 92.499 0.753301C92.5759 1.01512 92.1203 1.3324 91.5718 1.46663C90.3337 1.78834 90.382 1.55204 91.495 1.20481C92.592 0.936353 91.6236 0.574667 90.1514 0.766568C89.4939 0.79651 88.9776 0.773203 88.8686 0.668917C88.7596 0.564631 88.1182 0.515803 87.6948 0.675551C85.6259 1.23798 85.0935 1.29344 85.0327 0.952855C84.988 0.533497 81.8418 0.629957 81.6203 1.07705C81.5721 1.31335 81.1647 1.39433 80.8056 1.23901C80.4304 1.16245 80.3375 0.979396 80.4947 0.847379C81.0753 0.555614 80.2928 0.560037 78.8206 0.751938C78.1471 0.860648 77.3485 0.943838 76.9893 0.788514C76.6142 0.711958 76.4569 0.843976 76.5338 1.1058C76.6106 1.36762 76.4534 1.49964 76.2033 1.4486C75.9532 1.39756 75.8602 1.21451 75.7834 0.952685C75.6905 0.769631 75.1902 0.667553 73.8592 0.806206C72.8104 0.83836 71.7617 0.870515 71.5116 0.819477C71.2614 0.768439 70.3538 0.747344 69.6803 0.856054C69.0067 0.964764 68.2403 0.890418 67.8811 0.735095C67.522 0.579771 67.2558 0.607501 67.2076 0.843805C67.1594 1.08011 66.7681 1.08232 66.534 0.952513C66.1749 0.79719 65.7836 0.799401 65.6264 0.931418C65.4692 1.06343 64.8278 1.01461 64.3276 0.912534C63.8273 0.81046 63.5611 0.838192 63.654 1.02125C63.7469 1.2043 63.4486 1.38957 63.0412 1.47055C62.2587 1.47497 62.2587 1.47497 62.5892 1.13217C62.9197 0.789367 62.7946 0.763847 60.9794 0.721656C59.8056 0.72829 58.4906 0.788172 58.0672 0.947919C57.5187 1.08215 57.0024 1.05884 56.8934 0.954555C56.7844 0.850268 56.6433 0.903518 56.6111 1.06105C56.579 1.21859 56.4379 1.27184 56.2038 1.14203C56.0948 1.03775 55.7196 0.961189 55.4534 0.98892C55.0461 1.0699 53.7472 1.05102 52.5894 0.978883C50.9154 0.883443 50.3669 1.01767 50.4277 1.35826C50.4884 1.69885 50.3473 1.7521 50.0364 1.36047C49.4914 0.83904 47.9746 0.611583 47.8942 1.00542C47.862 1.16296 47.4708 1.16517 47.0956 1.08861C46.4863 0.882252 33.4172 1.08725 32.8526 1.30025C32.7115 1.3535 31.0053 1.41559 28.9399 1.32237C26.9836 1.33342 24.6199 1.42546 23.9463 1.53417C23.1477 1.61736 21.9739 1.624 21.0663 1.6029C20.2998 1.52856 19.6263 1.63727 19.6102 1.71603C19.5781 1.87357 18.4043 1.88021 16.7463 1.706C16.3711 1.62944 15.4474 1.68711 14.6327 1.84907C13.9591 1.95778 12.9265 1.91117 12.6763 1.86013C12.4262 1.80909 11.7848 1.76027 11.6437 1.81352C11.2363 1.89449 8.85655 2.0653 6.11766 2.08078C0.6238 2.19051 -0.364168 2.56326 0.314921 4.34277C1.02615 5.96474 3.07543 6.13674 16.9145 5.35042C19.4194 5.20514 21.549 4.98329 21.8152 4.95556C21.9724 4.82354 22.2386 4.79581 22.3476 4.9001C22.9408 5.18523 26.9017 4.92681 26.841 4.58622C26.748 4.40316 26.8892 4.34991 27.1072 4.55849C27.5592 4.89687 41.427 4.60868 43.1975 4.23151C43.6048 4.15053 45.8274 4.11174 47.9088 4.1262C50.1153 4.16618 52.2128 4.10187 52.6362 3.94212C53.1686 3.88666 53.9511 3.88224 54.4353 4.06308C54.9356 4.16516 55.3269 4.16295 55.359 4.00541C55.3911 3.84788 55.7824 3.84566 56.0326 3.8967C57.017 4.17962 59.1466 3.95778 58.9447 3.67044C58.8518 3.48738 58.8518 3.48738 59.1949 3.72147C59.6469 4.05985 64.6084 4.00558 65.3301 3.66057C65.6124 3.55407 66.0037 3.55186 66.1127 3.65615C66.3467 3.78595 67.1132 3.8603 67.7867 3.75159C68.5853 3.66839 69.7592 3.66176 70.6668 3.68285C71.4493 3.67843 72.1229 3.56972 72.155 3.41219C72.1871 3.25465 72.4533 3.22692 72.6874 3.35673C73.0465 3.51205 73.5468 3.61413 73.9702 3.45438C74.6438 3.34567 75.035 3.34346 76.802 3.62195C77.3023 3.72403 78.226 3.66635 79.0246 3.58316C79.8232 3.49997 80.6057 3.49555 80.7147 3.59983C80.8237 3.70412 81.5902 3.77846 82.3888 3.69527C84.6596 3.42018 85.0669 3.3392 84.8042 2.71127C84.4647 1.82151 85.0579 2.10664 85.6475 3.04744L86.1443 3.80518L87.4145 3.32593C88.1202 3.05969 88.7938 2.95098 89.2619 3.21059C89.605 3.44468 89.9962 3.44247 90.0284 3.28493C90.0605 3.1274 90.4518 3.12518 90.6698 3.33376C91.0289 3.48908 91.4202 3.48687 91.7185 3.30161C92.0169 3.11634 92.2831 3.08861 92.6422 3.24393C92.8602 3.45251 95.1917 3.518 97.8056 3.477C100.419 3.436 102.767 3.42273 102.892 3.44825C103.517 3.57585 108.495 3.44281 108.652 3.31079C108.793 3.25754 109.185 3.25533 109.435 3.30637C109.794 3.46169 112.125 3.52719 114.864 3.51171C117.478 3.47071 121 3.45081 122.565 3.44196C124.255 3.45863 125.82 3.44979 125.929 3.55407C126.179 3.60511 126.711 3.54965 126.994 3.44315C127.417 3.2834 127.808 3.28119 128.042 3.411C128.276 3.5408 128.543 3.51307 128.7 3.38106C128.857 3.24904 129.498 3.29786 129.874 3.37442C130.374 3.4765 131.015 3.52532 131.423 3.44434C131.83 3.36336 133.27 3.329 134.553 3.42665C135.961 3.54982 137.026 3.4389 137.167 3.38565C137.199 3.22812 137.449 3.27915 137.558 3.38344C137.792 3.51324 138.684 3.61311 139.732 3.58095C140.656 3.52328 141.346 3.3358 141.112 3.206C140.877 3.07619 140.817 2.7356 140.865 2.4993C141.07 2.13097 141.054 2.20975 141.599 2.73118C142.112 3.41015 142.846 3.64203 143.052 3.27371C143.084 3.11617 143.459 3.19273 143.943 3.37357C144.411 3.63318 144.803 3.63097 144.851 3.39467C144.883 3.23713 145.024 3.18388 145.133 3.28817C145.335 3.57551 148.449 3.63658 149.53 3.4469C149.937 3.36592 150.454 3.38922 150.704 3.44026C151.939 3.77422 155.053 3.83529 154.992 3.4947C154.899 3.31165 155.04 3.2584 155.383 3.49249C156.085 3.88191 157.792 3.81981 157.481 3.42818C157.388 3.24513 157.545 3.11311 157.779 3.24292C158.029 3.29395 158.247 3.50253 158.09 3.63454C158.058 3.79208 158.167 3.89637 158.433 3.86864C158.699 3.8409 158.872 3.63012 158.779 3.44706C158.703 3.18524 158.828 3.21076 159.296 3.47037C159.639 3.70447 160.03 3.70226 160.296 3.67452C160.454 3.54251 160.954 3.64458 161.297 3.87867C161.656 4.034 162.422 4.10834 162.971 3.97412C163.519 3.83989 164.177 3.80994 164.302 3.83546C164.895 4.12059 166.694 4.24155 166.775 3.84771C166.823 3.61141 167.214 3.60919 167.682 3.86881C168.635 4.30926 171.874 4.39586 172.079 4.02753C172.111 3.87 172.378 3.84227 172.596 4.05084C172.813 4.25941 173.33 4.28272 173.737 4.20174C174.145 4.12076 174.645 4.22284 174.879 4.35265C175.097 4.56122 175.363 4.53349 175.395 4.37595C175.427 4.21841 175.819 4.2162 176.194 4.29276C176.585 4.29055 177.226 4.33937 177.743 4.36268ZM70.5291 3.08044C70.2469 3.18694 70.0289 2.97837 69.827 2.69103C69.5 2.37817 69.5161 2.2994 70.0932 2.6633C70.4523 2.81862 70.6703 3.02719 70.5291 3.08044ZM76.5268 2.41712C76.3856 2.47037 76.0265 2.31505 75.8246 2.02771C75.5137 1.63608 75.6387 1.6616 76.1069 1.92121C76.575 2.18082 76.6679 2.36387 76.5268 2.41712ZM78.8905 2.32509C78.0919 2.40828 78.0919 2.40828 78.7975 2.14203C79.5193 1.79702 79.9106 1.7948 79.8624 2.03111C79.8463 2.10987 79.439 2.19086 78.8905 2.32509ZM81.1417 2.78442C80.7665 2.70787 80.6735 2.52481 80.8147 2.47156C81.097 2.36507 81.2381 2.31181 81.3632 2.33733C81.4882 2.36285 81.5972 2.46714 81.6901 2.6502C81.7831 2.83325 81.5169 2.86098 81.1417 2.78442ZM160.287 2.44196C160.037 2.39093 159.944 2.20787 159.976 2.05034C160.009 1.8928 160.275 1.86507 160.525 1.91611C160.775 1.96715 160.868 2.1502 160.836 2.30774C160.679 2.43975 160.537 2.493 160.287 2.44196ZM184.499 14.028C184.265 13.8982 183.983 14.0047 183.684 14.19C183.354 14.5328 182.18 14.5394 178.848 14.2698C174.499 13.8747 174.374 13.8492 173.986 13.1958C173.615 12.4635 173.961 12.042 174.522 12.4846C174.756 12.6144 175.023 12.5867 175.353 12.2439C175.667 11.9799 176.091 11.8201 176.341 11.8712C176.591 11.9222 177.249 11.8923 177.656 11.8113C178.079 11.6515 178.471 11.6493 178.455 11.7281C178.564 11.8324 179.612 11.8002 180.943 11.6616C183.339 11.412 185.95 12.0267 185.68 12.71C185.632 12.9464 185.692 13.2869 185.769 13.5488C186.157 14.2022 185.06 14.4707 184.499 14.028ZM161.274 11.0122C160.633 10.9634 160.21 11.1231 160.302 11.3062C160.395 11.4892 160.238 11.6212 160.004 11.4914C159.629 11.4149 159.613 11.4936 159.924 11.8853C160.328 12.46 161.562 12.7939 162.659 12.5255C163.333 12.4168 163.381 12.1804 163.211 11.7356C162.823 11.0821 162.823 11.0821 161.274 11.0122ZM161.723 12.0062C161.473 11.9552 161.255 11.7466 161.412 11.6146C161.444 11.4571 161.585 11.4038 161.71 11.4293C161.835 11.4549 161.928 11.6379 162.021 11.821C162.114 12.004 161.957 12.136 161.723 12.0062ZM158.839 12.7306C158.166 12.8393 158.041 12.8138 158.278 12.288C158.343 11.9729 158.282 11.6323 158.032 11.5813C157.782 11.5302 157.689 11.3472 157.971 11.2407C158.552 10.9489 159.145 11.234 159.048 11.7066C159 11.9429 159.109 12.0472 159.359 12.0983C160.158 12.0151 159.67 12.4899 158.839 12.7306ZM157.06 11.8752C156.761 12.0605 156.636 12.035 156.184 11.6966C155.748 11.2795 155.607 11.3327 155.495 11.8841C155.398 12.3567 155.273 12.3312 155.087 11.9651C154.885 11.6777 154.95 11.3627 155.091 11.3094C155.248 11.1774 155.139 11.0731 154.764 10.9965C154.389 10.92 153.981 11.001 153.933 11.2373C153.885 11.4736 153.978 11.6566 154.244 11.6289C154.51 11.6012 154.744 11.731 154.587 11.863C154.366 12.3101 153.538 11.8951 153.135 11.3205C152.84 10.8501 152.731 10.7458 152.041 10.9333C151.634 11.0142 150.976 11.0442 150.758 10.8356C150.524 10.7058 150.274 10.6548 150.117 10.7868C150.053 11.1019 151.017 12.1192 151.207 11.8296C151.239 11.6721 151.457 11.8807 151.659 12.168C152.063 12.7427 154.157 13.3341 153.894 12.7061C153.801 12.5231 154.317 12.5464 154.959 12.5952C156.226 12.7716 158.044 12.1582 157.624 11.6622C157.483 11.7155 157.217 11.7432 157.06 11.8752ZM152.868 11.3482C152.836 11.5057 152.57 11.5335 152.32 11.4824C152.07 11.4314 151.977 11.2483 152.259 11.1418C152.541 11.0353 152.682 10.9821 152.808 11.0076C152.933 11.0331 152.9 11.1907 152.868 11.3482ZM148.629 11.0574C149.661 11.1041 149.661 11.1041 148.802 10.8467C148.318 10.6658 147.66 10.6958 147.487 10.9065C147.189 11.0918 146.797 11.094 146.563 10.9642C146.204 10.8089 145.454 10.6558 144.796 10.6857C144.139 10.7157 143.388 10.5626 143.154 10.4327C142.561 10.1476 142.356 10.5159 142.885 11.1161C143.414 11.7163 142.788 11.5888 141.884 10.912C141.323 10.4693 141.182 10.5226 140.96 10.9697C140.723 11.4955 140.832 11.5998 142.599 11.8783C143.866 12.0547 144.35 12.2356 144.051 12.4208C143.753 12.6061 144.003 12.6571 144.911 12.6782C146.726 12.7204 147.698 12.4264 147.592 11.6665C147.564 11.1684 147.846 11.0619 148.629 11.0574ZM145.681 12.0969C145.29 12.0991 144.963 11.7863 145.027 11.4712C145.03 10.8155 145.547 10.8388 146.043 11.5966C146.213 12.0415 146.197 12.1202 145.681 12.0969ZM149.997 12.6495C149.183 12.8114 147.762 12.1114 148 11.5855C148.048 11.3492 148.58 11.2938 149.19 11.5001C149.799 11.7065 150.033 11.8363 149.876 11.9683C149.719 12.1003 149.702 12.1791 150.062 12.3344C150.546 12.5153 150.53 12.594 149.997 12.6495ZM142.535 12.1934C142.252 12.2999 141.736 12.2766 141.377 12.1212C141.018 11.9659 140.533 11.7851 140.283 11.734C140.033 11.683 139.972 11.3424 140.162 11.0529C140.682 10.4205 140.181 10.3184 135.611 10.3705C133.389 10.4093 131.59 10.2883 131.481 10.184C131.372 10.0797 131.089 10.1862 130.775 10.4503C130.46 10.7143 130.053 10.7953 129.944 10.691C129.367 10.3271 126.833 9.97426 126.894 10.3149C126.987 10.4979 126.721 10.5256 126.362 10.3703C125.753 10.1639 125.595 10.296 125.515 10.6898C125.451 11.0049 125.31 11.0581 125.342 10.9006C125.063 10.3514 124.095 9.98974 123.764 10.3325C123.623 10.3858 122.965 10.4157 122.09 10.2371C121.34 10.084 120.307 10.0374 119.791 10.0141C118.867 10.0717 118.851 10.1505 119.473 10.9338C119.969 11.6915 119.969 11.6915 119.424 11.1701C118.662 10.4401 117.709 9.99961 116.551 9.92747C115.769 9.9319 115.753 10.0107 116.08 10.3235C116.407 10.6364 116.032 10.5598 114.781 10.3046C113.796 10.0217 113.405 10.0239 114.014 10.2303C114.624 10.4367 114.935 10.8283 114.886 11.0646C114.697 11.3541 114.556 11.4074 114.245 11.0158C114.043 10.7284 113.091 10.288 111.965 10.0583C110.606 9.69882 109.964 9.65 109.384 9.94176C109.085 10.127 108.553 10.1825 108.319 10.0527C107.992 9.73983 105.66 9.67433 104.938 10.0193C104.656 10.1258 104.672 10.0471 104.72 9.81077C104.769 9.57447 104.519 9.52343 103.72 9.60662C103.046 9.71533 102.296 9.56222 102.187 9.45793C102.094 9.27488 101.921 9.48566 101.824 9.95827C101.744 10.3521 101.539 10.7204 101.288 10.6694C101.038 10.6184 101.022 10.6971 101.115 10.8802C101.208 11.0632 101.067 11.1165 100.567 11.0144C100.082 10.8336 100.099 10.7548 100.554 10.4375C101.167 9.98821 101.013 9.46456 100.198 9.62652C100.057 9.67977 99.666 9.68198 99.2909 9.60543C97.9151 9.32472 96.6002 9.3846 96.5198 9.77844C96.4716 10.0147 96.2054 10.0425 95.9874 9.83391C95.4264 9.39124 93.252 9.19372 93.4218 9.6386C93.5147 9.82166 93.1234 9.82387 92.5142 9.61751C91.8889 9.48991 91.1224 9.41557 90.715 9.49655C90.4167 9.68181 89.7753 9.63299 89.3072 9.37338C88.948 9.21805 88.5568 9.22026 88.5246 9.3778C88.4925 9.53534 88.0851 9.61631 87.6009 9.43547C87.1007 9.3334 86.6004 9.23132 86.4432 9.36334C86.0519 9.36555 85.7857 9.39328 85.6607 9.36776C84.9103 9.21465 82.7199 9.0959 79.8398 9.16463C78.0085 9.20121 76.1773 9.23778 75.5358 9.18896C74.8944 9.14013 72.9381 9.15119 70.9978 9.08348C69.1665 9.12006 65.7862 9.08671 63.5637 9.1255C53.5479 9.05099 50.918 9.17076 51.3379 9.66667C51.6488 10.0583 51.5237 10.0328 50.8376 9.5646C49.6834 8.8368 49.4332 8.78576 49.4619 9.28389C49.6316 9.72877 49.3815 9.67773 48.6632 9.36708C48.1791 9.18623 47.5537 9.05864 47.1303 9.21839C46.5818 9.35262 46.0494 9.40808 45.7993 9.35704C44.6898 9.04861 38.4134 9.16276 38.6153 9.4501C38.7082 9.63316 38.5671 9.68641 38.2079 9.53108C37.2396 9.16939 35.4243 9.1272 35.6102 9.49331C35.7031 9.67637 35.453 9.62533 35.0938 9.47C34.7508 9.23591 33.9843 9.16157 33.3268 9.19151C32.7944 9.24697 30.1967 9.2092 27.7561 9.03942C25.3156 8.86963 23.1091 8.82965 22.968 8.8829C22.8268 8.93615 21.8871 9.07259 20.9795 9.0515C19.9307 9.08365 19.116 9.24561 19.0839 9.40315C19.0518 9.56068 18.7695 9.66718 18.5354 9.53737C18.3014 9.40757 17.5188 9.41199 16.9543 9.62499C16.2807 9.7337 15.6232 9.76364 15.5142 9.65935C15.2802 9.52955 14.7478 9.58501 14.2922 9.90229C13.5705 10.2473 13.5222 10.4836 13.8814 10.6389C14.1154 10.7687 13.9743 10.822 13.474 10.7199C12.7236 10.5668 12.7236 10.5668 13.1596 10.9839C13.6117 11.3223 13.8618 11.3734 14.4263 11.1604C15.023 10.7898 15.023 10.7898 14.5353 11.2647C14.2048 11.6075 13.7654 11.846 13.4992 11.8737C13.249 11.8227 13.2008 12.059 13.4027 12.3463C13.7136 12.7379 14.1978 12.9188 15.8719 13.0142C17.0136 13.1651 18.0623 13.133 18.0945 12.9754C18.1266 12.8179 18.5179 12.8157 18.8609 13.0498C19.3451 13.2306 19.7203 13.3072 19.7685 13.0709C19.8007 12.9133 20.0669 12.8856 20.1759 12.9899C20.4099 13.1197 20.9263 13.143 21.3336 13.062C21.866 13.0066 22.3824 13.0299 22.4914 13.1342C22.6003 13.2384 22.7415 13.1852 22.7736 13.0277C22.8058 12.8701 23.2131 12.7891 23.5722 12.9445C24.1976 13.0721 27.3117 13.1331 29.159 13.0178C29.5503 13.0156 30.474 12.9579 31.1154 13.0067C31.7728 12.9768 32.8537 12.7871 33.5594 12.5209C34.2651 12.2546 34.6564 12.2524 34.3741 12.3589C33.9186 12.6762 34.0436 12.7017 34.7172 12.593C35.1406 12.4332 35.5158 12.5098 35.7498 12.6396C35.8588 12.7439 36.125 12.7162 36.4234 12.5309C36.5967 12.3201 37.004 12.2391 37.3792 12.3157C37.7544 12.3922 38.1618 12.3113 38.444 12.2048C38.6173 11.994 39.0086 11.9918 39.2587 12.0428C39.8519 12.3279 49.3996 12.1428 49.714 11.8788C49.8712 11.7468 50.2625 11.7446 50.6216 11.8999C50.9968 11.9765 51.9044 11.9976 52.7031 11.9144C53.5017 11.8312 54.1591 11.8012 54.1431 11.88C54.127 11.9588 54.7684 12.0076 55.5509 12.0032C56.4746 11.9455 57.0231 11.8113 57.0552 11.6537C57.1677 11.1024 57.45 10.9959 57.7609 11.3875C58.0879 11.7003 59.3707 11.798 62.3758 11.7548C64.7234 11.7415 67.5874 11.7516 68.7612 11.7449C76.0381 11.8349 87.2921 11.5877 87.5904 11.4025C87.7316 11.3492 87.9817 11.4002 88.3408 11.5556C88.6839 11.7897 88.9661 11.6832 88.9214 11.2638C88.9857 10.9487 89.2841 10.7635 89.5181 10.8933C89.8933 10.9698 89.9702 11.2317 89.6718 11.4169C89.3413 11.7597 89.3253 11.8385 89.9988 11.7298C90.4062 11.6488 91.3138 11.6699 92.0802 11.7442C92.8467 11.8186 94.0205 11.812 94.6941 11.7032C95.3676 11.5945 96.1502 11.5901 96.3681 11.7987C96.5861 12.0073 96.7273 11.954 96.5254 11.6667C96.4485 11.4048 95.8392 11.1985 95.2139 11.0709C94.1812 11.0243 94.0722 10.92 94.6368 10.707C95.0602 10.5472 95.2174 10.4152 94.8422 10.3387C94.5921 10.2876 94.3741 10.0791 94.5474 9.86827C94.5795 9.71073 94.9387 9.86606 95.3746 10.2832C95.6855 10.6748 96.3877 11.0643 96.9041 11.0876C97.4204 11.1109 97.9046 11.2917 97.8724 11.4492C97.8403 11.6068 98.7318 11.7066 99.6555 11.649C100.579 11.5913 101.612 11.6379 101.862 11.689C102.112 11.74 102.895 11.7356 103.661 11.8099C104.319 11.78 104.742 11.6202 104.649 11.4372C104.556 11.2541 104.822 11.2264 105.416 11.5115C105.884 11.7711 106.4 11.7944 106.416 11.7157C106.448 11.5581 106.965 11.5814 107.574 11.7878C108.683 12.0962 110.047 11.8 109.627 11.3041C109.534 11.1211 109.784 11.1721 110.252 11.4317C111.079 11.8467 111.079 11.8467 110.425 11.2209C109.864 10.7783 109.771 10.5952 110.021 10.6463C110.272 10.6973 110.772 10.7994 111.288 10.8227C111.804 10.846 111.913 10.9503 111.599 11.2143C111.127 11.6104 111.487 11.7657 113.536 11.9377C114.318 11.9333 114.992 11.8245 115.04 11.5882C115.262 11.1411 116.169 11.1622 117.481 11.758C118.074 12.0432 118.715 12.092 118.998 11.9855C119.155 11.8535 119.655 11.9555 120.014 12.1109C120.373 12.2662 120.623 12.3172 120.656 12.1597C120.704 11.9234 122.519 11.9656 123.253 12.1975C123.378 12.223 123.645 12.1952 123.677 12.0377C123.709 11.8802 123.85 11.8269 124.1 11.878C124.943 12.2141 125.601 12.1842 125.415 11.8181C125.338 11.5563 125.463 11.5818 125.822 11.7371C126.182 11.8924 127.057 12.0711 127.965 12.0921C129.389 12.1366 129.53 12.0833 129.126 11.5086C128.722 10.9339 128.847 10.9595 129.626 11.6107C130.53 12.2875 130.655 12.313 133.943 12.1633C136.306 12.0712 137.387 11.8815 137.452 11.5665C137.5 11.3302 137.689 11.0406 138.08 11.0384C138.347 11.0107 138.597 11.0617 138.44 11.1937C138.077 11.6941 138.041 12.5073 138.481 12.2687C138.638 12.1367 139.029 12.1345 139.247 12.3431C139.481 12.4729 139.856 12.5494 140.014 12.4174C140.296 12.3109 140.953 12.281 141.579 12.4086C142.204 12.5362 142.878 12.4275 143.035 12.2954C142.926 12.1912 142.817 12.0869 142.535 12.1934ZM16.0934 12.5671C15.5931 12.4651 14.9999 12.1799 14.782 11.9714C14.471 11.5797 14.5961 11.6052 14.8141 11.8138C15.0321 12.0224 15.4234 12.0202 15.5806 11.8882C15.9879 11.8072 16.222 11.937 16.549 12.2498C16.9849 12.667 16.8438 12.7202 16.0934 12.5671ZM90.708 10.8079C90.4418 10.8356 90.0666 10.759 89.8486 10.5505C89.4895 10.3951 89.6306 10.3419 90.1309 10.444C90.6151 10.6248 90.8492 10.7546 90.708 10.8079ZM117.811 11.4152C117.452 11.2599 117.234 11.0513 117.234 11.0513C117.25 10.9726 117.625 11.0491 117.875 11.1001C118.126 11.1512 118.594 11.4108 118.437 11.5428C118.42 11.6216 118.154 11.6493 117.811 11.4152ZM123.18 11.28C122.898 11.3865 122.615 11.493 122.506 11.3887C122.397 11.2844 122.571 11.0736 122.728 10.9416C123.434 10.6753 123.668 10.8052 123.18 11.28ZM132.724 11.7505C132.381 11.5164 132.163 11.3079 132.195 11.1503C132.385 10.8608 132.635 10.9118 133.023 11.5653C133.317 12.0357 133.301 12.1144 132.724 11.7505Z" fill="#00F5D8" fill-opacity="0.5"/>
</svg>
