<svg width="187" height="79" viewBox="0 0 187 79" fill="none" xmlns="http://www.w3.org/2000/svg">
<path d="M1.40505 34.8801C1.32624 35.0434 1.16605 35.1675 1.08466 35.1282C1.00327 35.089 0.961283 34.968 0.916718 34.6445C0.995524 34.4812 1.07433 34.3178 1.31849 34.4356C1.56266 34.5534 1.48385 34.7168 1.40505 34.8801ZM162.557 24.037C162.72 24.1156 162.88 23.9915 162.878 23.7889C162.875 23.5863 162.791 23.3444 162.71 23.3051C162.628 23.2659 162.507 23.3083 162.389 23.5533C162.271 23.7983 162.394 23.9585 162.557 24.037ZM161.336 23.448C161.499 23.5265 161.701 23.5234 161.982 23.3569C162.143 23.2329 162.14 23.0303 161.896 22.9125C161.652 22.7947 161.449 22.7978 161.331 23.0428C161.132 23.2485 161.174 23.3694 161.336 23.448ZM149.133 68.7044C148.97 68.6259 148.891 68.7892 148.855 69.0735C148.818 69.3578 148.902 69.5996 148.902 69.5996C148.983 69.6389 149.062 69.4756 149.18 69.2306C149.38 69.0248 149.296 68.7829 149.133 68.7044ZM175.623 36.8849C175.617 36.4797 175.536 36.4405 175.255 36.6069C174.935 36.8551 174.853 36.8158 175.05 36.4074C175.168 36.1624 175.043 35.7996 174.636 35.6033C174.066 35.3284 174.066 35.3284 174.276 35.9331C174.53 36.8613 175.51 37.5351 175.623 36.8849ZM131.159 73.7244C131.036 73.5642 130.873 73.4857 130.833 73.5674C130.755 73.7307 129.988 73.8641 129.058 73.9191C128.129 73.974 127.323 74.1891 127.165 74.5158C127.047 74.7608 126.805 74.8455 126.48 74.6885C126.031 74.3712 125.023 74.5894 124.786 75.0794C124.707 75.2428 124.833 75.6056 125.038 75.805C125.243 76.0045 125.406 76.0831 125.364 75.9621C125.198 75.681 125.721 75.4297 126.285 75.2994C127.091 75.0843 127.456 75.1597 127.622 75.4408C127.748 75.8036 127.869 75.7612 127.942 75.1927C128.018 74.8268 128.218 74.621 128.299 74.6603C128.462 74.7389 129.19 74.6871 129.914 74.4327C130.923 74.2144 131.324 74.0056 131.159 73.7244ZM143.62 13.7927C145.532 14.6142 145.729 14.2059 143.857 13.3027C143.043 12.91 142.313 12.7592 142.234 12.9226C142.155 13.0859 142.686 13.4424 143.62 13.7927ZM110.21 4.01564C110.494 4.05178 111.224 4.20259 111.67 4.31727C112.116 4.43195 112.602 4.46495 112.681 4.30162C112.839 3.97495 112.432 3.77861 111.014 3.59791C110.405 3.4047 109.759 3.49575 109.68 3.65909C109.601 3.82242 109.845 3.94023 110.21 4.01564ZM183.432 46.6935C182.836 47.5133 182.121 48.5781 181.488 49.6822C181.331 50.0088 181.129 50.012 181.005 49.8518C180.882 49.6916 180.719 49.613 180.601 49.858C180.522 50.0214 180.525 50.2239 180.687 50.3025C180.931 50.4203 180.614 50.871 178.581 53.2126C177.982 53.8298 177.504 54.4046 177.465 54.4863C177.228 54.9763 176.737 54.538 176.892 54.0088C177.087 53.3978 176.706 52.1068 176.509 52.5152C176.431 52.6785 176.433 52.8811 176.599 53.1622C176.929 53.7245 175.637 53.9066 175.065 53.4291L174.574 52.9909L175.659 52.4067C176.221 52.0738 176.541 51.8257 176.218 51.8712C175.895 51.9167 175.814 51.8775 176.095 51.711C176.255 51.5869 176.741 51.62 176.985 51.7378C177.31 51.8948 177.715 51.8886 177.875 51.7645C178.035 51.6404 178.237 51.6373 178.361 51.7975C178.484 51.9577 178.605 51.9153 178.762 51.5887C178.881 51.3437 179.122 51.2589 179.285 51.3374C179.529 51.4552 179.569 51.3735 179.361 50.9715C179.198 50.8929 178.87 50.5333 178.708 50.4547C178.545 50.3762 178.587 50.4971 178.671 50.739C178.917 51.0594 178.757 51.1835 177.991 51.3169C177.224 51.4504 177.061 51.3718 177.056 50.9666C177.093 50.6824 177.253 50.5583 177.497 50.6761C177.741 50.7939 177.901 50.6698 177.899 50.4672C177.896 50.2646 178.096 50.0589 178.379 50.095C178.865 50.1281 178.905 50.0464 178.655 49.5234C178.361 48.6768 179.241 47.8932 180.176 48.2435L180.948 48.5152L180.173 48.0409C179.724 47.7236 179.559 47.4424 179.719 47.3184C179.879 47.1943 180.594 46.1295 181.266 44.9438C181.978 43.6764 182.614 42.7749 182.937 42.7294C183.26 42.6839 183.299 42.6022 182.895 42.6085C182.409 42.5755 182.446 42.2912 182.916 41.1086C183.189 40.3343 183.625 39.6386 183.827 39.6355C184.069 39.5507 184.108 39.469 183.864 39.3512C183.701 39.2727 183.617 39.0308 183.696 38.8674C183.775 38.7041 184.098 38.6586 184.424 38.8157C184.912 39.0513 185.033 39.0089 184.865 38.5251C184.697 38.0414 184.655 37.9205 184.172 38.0901C183.849 38.1356 183.646 38.1387 183.807 38.0146C184.046 37.7272 184.387 35.9792 184.377 35.1688C184.33 34.6427 184.451 34.6003 184.697 34.9207C184.984 35.1594 185.104 35.117 185.099 34.7118C185.136 34.4276 185.01 34.0648 184.766 33.947C184.522 33.8292 184.477 33.5056 184.595 33.2606C184.871 32.6889 184.155 30.4304 182.15 25.436C181.607 24.0664 181.643 23.7821 182.048 23.7759C182.573 23.7272 182.531 23.6063 182.203 23.2466C181.998 23.0471 181.872 22.6843 181.951 22.521C182.03 22.3577 182.151 22.3153 182.316 22.5964C182.439 22.7566 182.641 22.7535 182.72 22.5901C182.957 22.1001 183.366 22.4991 183.293 23.0676C183.256 23.3519 183.421 23.633 183.665 23.7508C184.154 23.9865 184.537 25.4801 184.174 25.6073C184.053 25.6497 184.135 25.6889 184.337 25.6858C184.66 25.6403 185.075 26.4444 185.497 27.8564C185.917 29.0657 186.174 30.1966 186.135 30.2782C186.095 30.3599 186.226 31.1279 186.358 31.8959C186.743 33.5921 186.361 38.5425 185.815 40.091C185.62 40.702 185.387 41.3946 185.429 41.5155C185.431 41.7181 185.079 42.6557 184.446 43.7598C183.934 44.8214 183.621 45.6774 183.742 45.635C183.947 45.8344 183.75 46.2428 183.432 46.6935ZM186.095 33.4806C186.134 33.3989 185.971 33.3204 185.727 33.2026C185.483 33.0848 185.362 33.1272 185.365 33.3298C185.328 33.614 185.976 33.7256 186.095 33.4806ZM179.992 49.6648C180.07 49.5015 180.068 49.2989 179.824 49.1811C179.58 49.0633 179.459 49.1057 179.341 49.3507C179.262 49.514 179.264 49.7166 179.508 49.8344C179.753 49.9522 179.913 49.8281 179.992 49.6648ZM182.955 44.1476C183.078 44.3078 183.404 44.4649 183.524 44.4225C183.645 44.3801 183.522 44.2199 183.196 44.0628C182.871 43.9057 182.75 43.9481 182.955 44.1476ZM184.129 41.0898C184.168 41.0081 184.126 40.8872 183.882 40.7694C183.719 40.6909 183.478 40.7757 183.399 40.939C183.32 41.1023 183.444 41.2625 183.646 41.2594C183.969 41.2139 184.09 41.1715 184.129 41.0898ZM182.818 46.0951C182.403 45.2909 182.077 45.1339 181.964 45.7841C181.928 46.0683 181.767 46.1924 181.686 46.1531C181.523 46.0746 181.402 46.117 181.284 46.362C181.205 46.5253 181.289 46.7672 181.534 46.885C181.778 47.0028 182.019 46.918 182.098 46.7547C182.216 46.5097 182.298 46.549 182.342 46.8725C182.429 47.317 182.429 47.317 182.749 47.0688C182.988 46.7814 183.064 46.4155 182.818 46.0951ZM176.459 54.9071C176.301 55.2338 176.057 55.116 175.527 54.7594C175.078 54.4421 174.632 54.3275 174.39 54.4123C174.109 54.5787 174.232 54.7389 174.881 54.8505C175.409 55.0044 175.695 55.2432 175.7 55.6484C175.71 56.4588 174.951 57.2 174.542 56.8011C174.337 56.6016 174.216 56.644 174.258 56.7649C174.261 56.9675 173.623 57.6664 172.782 58.3684C171.501 59.3609 171.138 59.4881 171.012 59.1253C170.928 58.8834 170.884 58.5599 171.044 58.4358C171.165 58.3934 171.241 58.0275 171.154 57.583C170.945 56.9784 170.905 57.06 170.553 57.9976C170.359 58.6086 170.327 59.298 170.492 59.5792C170.658 59.8603 170.621 60.1446 170.219 60.3534C169.899 60.6016 169.736 60.523 169.854 60.278C170.051 59.8697 169.358 59.4346 168.917 59.7251C168.757 59.8492 168.799 59.9701 169.122 59.9246C169.487 60 169.529 60.121 169.371 60.4476C169.213 60.7743 169.011 60.7774 168.927 60.5355C168.762 60.2544 168.723 60.3361 168.646 60.702C168.609 60.9863 168.491 61.2313 168.37 61.2737C168.25 61.3161 167.325 61.7762 166.322 62.3996C164.518 63.6434 163.872 63.7345 164.266 62.9178C164.384 62.6728 164.34 62.3493 164.135 62.1498C163.93 61.9503 163.928 61.7477 164.088 61.6237C164.248 61.4996 164.085 61.4211 163.802 61.3849C163.397 61.3912 163.277 61.4336 163.442 61.7147C163.812 62.1953 163.287 62.244 162.431 61.7304C161.738 61.2953 161.257 61.6675 161.228 62.5595C161.233 62.9647 161.236 63.1673 161.275 63.0857C161.714 62.5925 161.832 62.3476 162.032 62.1418C162.111 61.9785 162.557 62.0932 163.045 62.3288C163.534 62.5644 163.82 62.8031 163.699 62.8455C163.578 62.8879 163.581 63.0905 163.625 63.4141C163.796 64.1004 160.732 64.8368 160.48 64.1112C160.354 63.7484 160.272 63.7091 160.075 64.1175C159.957 64.3625 160.083 64.7253 160.327 64.8431C160.734 65.0394 160.695 65.1211 160.212 65.2907C159.689 65.5419 159.077 65.1461 159.518 64.8556C159.639 64.8132 159.715 64.4473 159.671 64.1237C159.584 63.6792 159.584 63.6793 159.429 64.2085C159.353 64.5745 159.072 64.7409 158.867 64.5414C158.705 64.4629 158.502 64.466 158.586 64.7079C158.589 64.9105 158.712 65.0707 158.914 65.0676C159.319 65.0613 159.203 65.5089 158.72 65.6785C158.478 65.7633 158.318 65.8874 158.239 66.0507C158.161 66.214 158 66.3381 157.922 66.5014C157.882 66.5831 157.717 66.302 157.672 65.9784C157.583 65.3314 157.462 65.3738 157.189 66.148C156.953 66.638 156.795 66.9647 156.672 66.8045C156.548 66.6443 156.428 66.6867 156.228 66.8924C156.068 67.0165 155.784 66.9803 155.498 66.7416C155.212 66.5029 155.249 66.2186 155.448 66.0128C155.729 65.8464 155.648 65.8071 155.364 65.771C155.081 65.7348 154.8 65.9013 154.561 66.1887C154.322 66.4761 154.364 66.597 154.647 66.6332C154.97 66.5876 155.012 66.7086 154.613 67.12C154.214 67.5315 154.256 67.6524 154.7 67.5645C155.627 67.307 155.267 67.6368 153.899 68.1848C152.531 68.7329 152.005 68.7815 152.686 68.2036C152.885 67.9979 152.964 67.8345 152.883 67.7953C152.801 67.756 152.441 68.0858 152.003 68.5789C151.325 69.3595 151.244 69.3202 151.357 68.67C151.433 68.3041 151.347 67.8596 151.184 67.781C150.858 67.624 150.779 67.7873 150.832 68.7187C150.879 69.2448 150.761 69.4898 150.359 69.6986C149.595 70.0347 149.269 69.8776 149.545 69.306C149.663 69.061 149.579 68.8191 149.417 68.7406C149.254 68.662 149.251 68.4594 149.493 68.3746C149.653 68.2506 149.451 68.2537 149.007 68.3416C148.161 68.6384 148.08 68.5991 148.356 68.0275C148.514 67.7008 148.671 67.3741 148.75 67.2108C148.829 67.0475 148.385 67.1354 147.66 67.3898C146.332 67.8561 145.733 68.4733 146.502 68.5425C146.786 68.5786 147.148 68.4514 147.348 68.2457C147.707 67.9159 147.789 67.9552 147.794 68.3604C147.839 68.6839 147.72 68.9289 147.397 68.9744C147.074 69.02 147.116 69.1409 147.481 69.2163C147.928 69.331 148.012 69.5729 147.857 70.1021C147.662 70.7131 147.541 70.7555 147.292 70.2325C147.043 69.7094 146.961 69.6702 146.969 70.278C146.901 71.2517 145.974 71.5092 145.197 70.8323C144.829 70.5543 144.666 70.4757 144.79 70.6359C144.913 70.7961 144.837 71.1621 144.598 71.4495C144.359 71.7369 144.117 71.8217 143.994 71.6615C143.87 71.5013 143.789 71.462 143.71 71.6253C143.631 71.7887 143.348 71.7525 143.104 71.6347C142.778 71.4776 142.537 71.5624 142.34 71.9708C142.143 72.3791 141.901 72.4639 141.533 72.1859C141.166 71.9079 141.045 71.9503 141.011 72.4371C141.016 72.8424 140.774 72.9271 140.488 72.6884C140.202 72.4497 139.961 72.5345 139.842 72.7795C139.724 73.0245 139.443 73.1909 139.16 73.1548C138.713 73.0401 138.713 73.0401 139.278 72.9098C139.842 72.7795 139.842 72.7795 139.396 72.6648C139.112 72.6287 138.831 72.7951 138.755 73.161C138.64 73.6086 138.437 73.6118 138.109 73.2521C137.823 73.0134 137.579 72.8955 137.5 73.0589C137.421 73.2222 137.098 73.2677 136.733 73.1923C136.287 73.0777 135.967 73.3258 135.93 73.6101C135.854 73.976 135.413 74.2665 134.848 74.3968C134.283 74.5272 134 74.491 134.281 74.3246C134.882 73.91 134.113 73.8408 132.863 74.1439C131.734 74.4045 131.734 74.4045 132.052 73.9538C132.291 73.6664 132.572 73.4999 132.734 73.5785C132.816 73.6177 133.139 73.5722 133.338 73.3665C133.577 73.0791 133.496 73.0398 132.808 73.0099C132.322 72.9769 131.879 73.0648 131.8 73.2282C131.721 73.3915 131.64 73.3522 131.516 73.192C131.393 73.0318 131.191 73.035 130.991 73.2407C130.631 73.5705 125.025 74.792 124.739 74.5533C124.413 74.3962 120.95 75.5441 120.913 75.8284C120.916 76.031 120.834 75.9917 120.711 75.8315C120.588 75.6713 120.02 75.599 119.374 75.6901C118.526 75.7843 118.164 75.9114 118.13 76.3983C118.095 76.8852 118.177 76.9245 118.416 76.6371C118.615 76.4313 119.059 76.3434 119.303 76.4612C119.75 76.5759 119.671 76.7392 119.353 77.1899C119.114 77.4773 118.873 77.5621 118.951 77.3988C118.988 77.1145 118.825 77.036 118.179 77.1271C117.654 77.1757 117.208 77.061 117.205 76.8584C117.082 76.6982 117.124 76.8192 117.208 77.061C117.252 77.3846 117.258 77.7898 117.179 77.9531C117.1 78.1165 117.019 78.0772 116.974 77.7536C116.888 77.3092 116.725 77.2306 115.877 77.3248C114.908 77.4614 114.908 77.4614 115.346 76.9683C115.585 76.6809 115.743 76.3542 115.62 76.194C115.496 76.0338 115.294 76.0369 115.176 76.2819C114.861 76.9353 114.293 76.863 114.609 76.2096C114.766 75.883 115.168 75.6741 115.654 75.7071C116.14 75.7401 116.623 75.5706 116.702 75.4072C116.82 75.1622 118.395 75.0162 119.246 75.1247C119.327 75.1639 120.013 74.9912 120.496 74.8216C121.06 74.6913 121.625 74.561 121.788 74.6395C122.032 74.7573 125.38 74.057 127.596 73.4148C128.161 73.2845 129.087 73.027 129.613 72.9783C130.138 72.9297 130.944 72.7145 131.306 72.5873C131.669 72.4602 131.992 72.4146 131.952 72.4963C131.873 72.6596 133.003 72.399 135.017 71.7599C135.581 71.6296 136.146 71.4992 136.308 71.5778C136.471 71.6563 136.631 71.5323 136.75 71.2873C136.868 71.0423 137.109 70.9575 137.354 71.0753C137.761 71.2716 140.66 70.2541 140.615 69.9305C140.573 69.8096 140.048 69.8582 139.483 69.9886C137.348 70.6701 134.807 71.1552 134.481 70.9981C134.318 70.9196 134.077 71.0044 133.998 71.1677C133.919 71.3311 133.678 71.4159 133.515 71.3373C133.352 71.2588 133.712 70.929 134.397 70.7563C135.04 70.4626 135.686 70.3716 135.768 70.4108C135.849 70.4501 136.051 70.447 136.212 70.3229C136.372 70.1988 137.661 69.8141 138.992 69.5503C140.363 69.2049 144.231 68.0508 147.372 66.9484C153.009 65.0374 153.332 64.9919 152.379 66.3441C152.3 66.5074 152.137 66.4289 152.014 66.2687C151.891 66.1084 151.365 66.1571 150.843 66.4084C150.32 66.6596 149.795 66.7083 149.672 66.5481C149.506 66.2669 149.467 66.3486 149.551 66.5905C149.845 67.437 150.824 68.1108 151.06 67.6208C151.179 67.3758 151.499 67.1277 151.943 67.0398C152.507 66.9095 152.589 66.9487 152.594 67.3539C152.639 67.6775 152.801 67.756 153.284 67.5864C153.647 67.4592 154.012 67.5346 154.054 67.6556C154.096 67.7765 154.177 67.8158 154.133 67.4922C154.088 67.1687 153.925 67.0902 153.439 67.0572C152.429 67.0728 152.5 66.3017 153.547 66.0017C154.595 65.7018 154.753 65.3752 154.503 64.8522C154.38 64.692 154.779 64.2805 155.625 63.9837C156.712 63.6021 157.198 63.6351 157.809 64.0309C158.34 64.3875 158.623 64.4236 158.781 64.097C159.017 63.607 158.854 63.5284 157.964 63.5017C157.035 63.5566 157.234 63.3509 158.4 62.8059C159.325 62.3458 160.175 62.4542 159.574 62.8688C159.414 62.9929 159.256 63.3196 159.261 63.7248C159.309 64.2509 159.39 64.2902 159.745 63.5552C159.981 63.0652 160.262 62.8987 160.385 63.0589C160.509 63.2191 160.711 63.216 160.829 62.971C160.947 62.726 160.782 62.4449 160.296 62.4119C159.687 62.2186 159.808 62.1762 160.976 61.8339C161.782 61.6188 162.549 61.4854 162.631 61.5246C162.793 61.6032 162.872 61.4398 162.909 61.1556C162.946 60.8713 163.426 60.4991 164.07 60.2054C164.873 59.7877 165.076 59.7846 164.96 60.2322C164.802 60.5589 164.886 60.8007 165.049 60.8793C165.212 60.9578 165.291 60.7945 165.325 60.3076C165.317 59.6998 165.435 59.4548 166.239 59.0371C166.761 58.7858 167.326 58.6555 167.449 58.8157C167.654 59.0152 167.975 58.767 168.25 58.1954C168.29 58.1137 168.571 57.9472 168.894 57.9017C168.967 57.3332 169.13 57.4117 169.051 57.5751C168.972 57.7384 169.056 57.9803 169.219 58.0588C169.382 58.1373 169.542 58.0133 169.54 57.8107C169.537 57.6081 169.616 57.4447 169.86 57.5625C170.023 57.6411 170.102 57.4777 170.054 56.9516C170.047 56.3438 170.126 56.1805 170.648 55.9292C171.05 55.7203 171.932 55.1393 172.694 54.6006C173.815 53.7322 174.178 53.605 174.829 53.9191C175.236 54.1155 175.803 54.1878 175.963 54.0637C176.365 53.8548 176.735 54.3354 176.459 54.9071ZM117.15 75.7245C117.15 75.7245 116.785 75.6491 116.502 75.6129C115.853 75.5014 115.575 75.8705 116.145 76.1453C116.389 76.2631 116.712 76.2176 116.911 76.0119C117.072 75.8878 117.232 75.7638 117.15 75.7245ZM135.436 72.9692C135.668 72.074 135.382 71.8353 134.822 72.3708C134.263 72.9064 134.223 72.988 134.712 73.2236C134.956 73.3414 134.958 73.544 134.798 73.6681C134.557 73.7529 134.599 73.8738 134.801 73.8707C135.042 73.7859 135.321 73.4168 135.436 72.9692ZM137.283 71.8464C137.361 71.6831 137.319 71.5621 137.075 71.4443C136.912 71.3658 136.671 71.4506 136.553 71.6956C136.434 71.9406 136.437 72.1432 136.76 72.0977C137.044 72.1338 137.204 72.0097 137.283 71.8464ZM139.339 71.3282C139.215 71.168 138.932 71.1319 138.771 71.256C138.33 71.5465 138.619 71.9878 139.102 71.8182C139.465 71.691 139.543 71.5277 139.339 71.3282ZM141.964 71.085C142.24 70.5133 142.159 70.474 140.749 70.9011C140.145 71.1131 139.743 71.322 139.987 71.4398C140.231 71.5576 140.554 71.5121 140.754 71.3063C140.953 71.1006 141.276 71.0551 141.481 71.2545C141.644 71.3331 141.846 71.33 141.964 71.085ZM143.936 70.3249C144.055 70.0799 144.091 69.7957 143.929 69.7171C143.766 69.6386 143.763 69.436 143.881 69.191C144 68.946 143.916 68.7041 143.753 68.6256C143.265 68.39 140.849 69.2379 140.975 69.6007C141.017 69.7217 141.502 69.7547 141.904 69.5458C142.91 69.125 143.398 69.3606 143.571 70.2495C143.739 70.7333 143.739 70.7333 143.936 70.3249ZM145.326 68.277C145.646 68.0289 145.927 67.8624 145.846 67.8231C145.683 67.7446 144.598 68.3288 144.64 68.4497C144.682 68.5707 145.045 68.4435 145.326 68.277ZM146.402 70.2057C146.076 70.0486 145.956 70.091 146.16 70.2905C146.284 70.4507 146.609 70.6078 146.73 70.5654C146.851 70.523 146.727 70.3628 146.402 70.2057ZM144.777 69.6229C144.9 69.7831 145.386 69.8162 145.869 69.6466C146.715 69.3498 146.715 69.3498 146.145 69.0749C145.373 68.8031 144.527 69.0999 144.777 69.6229ZM147.855 66.7788C147.813 66.6579 147.571 66.7427 147.372 66.9484C147.012 67.2782 147.093 67.3175 147.455 67.1903C147.697 67.1055 147.897 66.8998 147.855 66.7788ZM157.016 65.2591C157.013 65.0565 156.809 64.857 156.607 64.8601C156.362 64.7423 156.323 64.824 156.528 65.0235C156.651 65.1837 156.614 65.4679 156.375 65.7553C156.016 66.0851 156.097 66.1244 156.499 65.9155C156.819 65.6674 157.058 65.38 157.016 65.2591ZM161.887 63.4815C162.047 63.3574 162.452 63.3512 162.777 63.5082C163.266 63.7439 163.386 63.7015 163.098 63.2601C162.602 62.4167 162.197 62.423 161.882 63.0763C161.685 63.4846 161.727 63.6056 161.887 63.4815ZM166.916 61.3772C166.745 60.6909 166.661 60.449 166.543 60.694C166.504 60.7757 166.669 61.0568 166.795 61.4196C167.086 62.0636 167.086 62.0636 166.916 61.3772ZM172.769 57.3554C172.809 57.2737 172.767 57.1528 172.523 57.035C172.36 56.9564 172.118 57.0412 172.039 57.2046C171.961 57.3679 172.084 57.5281 172.286 57.525C172.488 57.5219 172.73 57.4371 172.769 57.3554ZM173.271 55.4833C173.192 55.6466 173.355 55.7252 173.636 55.5587C173.878 55.4739 174.159 55.3075 174.035 55.1473C174.033 54.9447 173.468 55.075 173.271 55.4833ZM33.1293 7.59983C42.354 4.70112 53.2091 2.7904 65.5737 1.91004C67.7557 1.75469 69.9771 1.51766 70.3395 1.39047C70.7832 1.30254 71.1876 1.29628 71.1482 1.37795C71.1902 1.49889 73.3748 1.54613 76.0031 1.50545C78.7128 1.50404 81.5039 1.54189 82.2313 1.49011C83.0006 1.55926 83.6885 1.58914 83.7673 1.42581C83.8067 1.34414 84.534 1.29235 85.3453 1.48244C86.1961 1.59086 86.884 1.62074 86.9628 1.45741C87.0416 1.29407 87.1624 1.25167 87.3277 1.53281C87.4511 1.69302 87.6139 1.77155 87.6927 1.60822C87.7715 1.44489 87.9737 1.44176 88.2178 1.55957C88.6248 1.75591 95.1023 2.26358 97.0847 2.31395C97.6912 2.30457 98.3397 2.41611 98.6653 2.57319C98.9909 2.73026 99.3138 2.68474 99.5554 2.59994C99.5528 2.39734 99.9992 2.51202 100.325 2.66909C100.65 2.82616 101.217 2.89844 101.459 2.81365C101.701 2.72885 101.903 2.72572 101.863 2.80739C101.824 2.88905 102.554 3.03987 103.444 3.06662C104.455 3.05098 105.55 3.2772 105.996 3.39188C106.442 3.50655 107.293 3.61498 107.858 3.48465C108.383 3.436 108.989 3.42661 109.031 3.54754C109.073 3.66848 109.234 3.54441 109.394 3.42034C109.554 3.29628 109.593 3.21462 109.512 3.17535C109.431 3.13608 108.945 3.10307 108.296 2.99152C107.729 2.91924 107.204 2.9679 107.125 3.13123C107.046 3.29456 106.965 3.2553 106.76 3.05582C106.676 2.81395 102.179 2.15406 94.9712 1.49557C87.3568 0.640741 72.8367 0.581776 64.0273 1.16394C59.4612 1.47778 51.4657 2.45262 47.4718 3.24395C40.734 4.52356 28.9675 7.90742 29.3796 8.50896C29.4216 8.6299 31.1153 8.23893 33.1293 7.59983ZM47.56 70.4386C47.6859 70.8014 47.4837 70.8046 46.8746 70.6114C46.4677 70.415 46.0187 70.0977 46.0556 69.8135C45.9716 69.5716 45.9322 69.6533 45.8166 70.1009C45.7429 70.6694 45.5013 70.7542 44.5298 70.6882C43.8813 70.5766 43.1094 70.3049 42.7419 70.0269C42.3324 69.6279 42.2116 69.6703 42.4189 70.0724C42.6263 70.4745 42.5055 70.5169 41.773 70.1634C41.2846 69.9278 40.8383 69.8131 40.8409 70.0158C40.8435 70.2184 40.5993 70.1005 40.2318 69.8225C39.8642 69.5445 39.3365 69.3906 39.0135 69.4361C38.5697 69.524 38.3256 69.4062 37.9555 68.9256C37.6273 68.5659 37.3806 68.2455 37.2598 68.2879C35.6029 68.3946 34.1405 67.8904 26.939 64.5164C23.7254 63.0666 21.8115 62.0425 21.8903 61.8792C21.9691 61.7158 21.7669 61.719 21.4439 61.7645C21.121 61.81 20.756 61.7346 20.5907 61.4535C20.5067 61.2116 20.0183 60.976 19.6114 60.7796C19.1651 60.665 18.9997 60.3838 19.1179 60.1388C19.2361 59.8938 19.1547 59.8546 18.7924 59.9818C18.43 60.1089 18.1044 59.9519 17.7763 59.5922C17.5295 59.2718 17.1226 59.0754 17.0018 59.1178C16.6394 59.245 13.3316 56.7429 13.4892 56.4163C13.568 56.2529 13.2005 55.9749 12.7935 55.7786C11.8169 55.3074 11.0818 54.7513 10.6303 54.2315C9.44111 52.953 8.86622 52.2729 8.45928 52.0765C7.88698 51.5991 6.20173 49.4771 4.59528 47.1919C3.35896 45.3872 0.973536 39.1017 1.41472 38.8112C1.57491 38.6871 1.65372 38.5238 1.49094 38.4453C1.00261 38.2097 0.892811 35.9418 1.33141 35.4486C1.57041 35.1612 1.64405 34.5927 1.55491 33.9456C1.21645 32.7755 1.68928 31.7955 2.259 32.0704C2.50316 32.1882 2.66336 32.0642 2.66078 31.8616C2.65819 31.659 2.37204 31.4202 2.04649 31.2631C1.63955 31.0668 1.55558 30.8249 1.75259 30.4166C2.06781 29.7633 2.43277 29.8387 2.68468 30.5643C2.76865 30.8062 2.97342 31.0056 3.1756 31.0025C3.29639 30.9601 3.33321 30.6758 3.16785 30.3947C3.04189 30.0319 3.08129 29.9502 3.32546 30.068C3.48824 30.1466 3.72982 30.0618 3.80863 29.8984C3.88743 29.7351 3.64327 29.6173 3.15752 29.5843C2.59296 29.7146 2.3488 29.5968 2.34363 29.1916C2.21251 28.4236 4.5502 24.6183 6.30459 22.6458C7.73859 20.9214 10.1389 18.8578 9.86568 19.6321C9.78687 19.7954 9.87084 20.0373 10.0336 20.1158C10.4406 20.3122 10.7532 19.4562 10.3857 19.1782C10.1809 18.9787 10.3385 18.6521 10.6169 18.283C11.0161 17.8715 11.2183 17.8684 11.5858 18.1464C11.914 18.5061 12.1975 18.5422 12.2763 18.3789C12.3551 18.2156 12.8777 17.9643 13.4423 17.834C14.3692 17.5765 14.7264 17.0441 14.0753 16.7299C13.9125 16.6514 13.7917 16.6938 13.8363 17.0173C13.8389 17.2199 13.7601 17.3833 13.5973 17.3047C13.4345 17.2262 13.0327 17.435 12.5522 17.8072C12.111 18.0978 11.788 18.1433 11.8248 17.859C11.8985 17.2905 13.5818 16.0891 16.3917 14.4245C22.1322 11.0528 26.998 8.87005 27.2868 9.3114C27.4521 9.59254 23.353 11.6419 22.1425 11.8632C21.7801 11.9904 21.5805 12.1962 21.6225 12.3171C21.7065 12.559 22.2316 12.5103 22.7542 12.2591C23.2768 12.0078 24.7657 11.4174 26.013 10.9117C28.4262 9.86116 28.8674 9.57063 28.3791 9.33502C28.2163 9.25648 28.1323 9.01461 28.2505 8.76961C28.3687 8.52461 28.6103 8.43981 28.8545 8.55762C29.0987 8.67543 29.1012 8.87803 28.9016 9.08376C28.3028 9.70096 28.7466 9.61303 31.6062 8.67715C34.022 7.82919 35.3113 7.44447 40.2689 6.11136C50.2236 3.36348 68.5618 1.53956 82.0762 2.01938C83.8564 2.07288 86.3246 2.15627 87.3355 2.14062C90.6124 2.21149 101.585 3.17645 104.058 3.66504C105.639 3.92428 105.72 3.96354 106.894 4.02643C107.5 4.01705 108.149 4.12859 108.475 4.28567C108.8 4.44274 109.367 4.51502 109.69 4.46949C110.055 4.5449 110.785 4.69572 111.192 4.89206C111.599 5.08841 112.368 5.15756 112.854 5.19057C113.298 5.10264 113.581 5.13878 113.503 5.30211C113.463 5.38378 113.747 5.41992 114.07 5.3744C114.393 5.32887 114.716 5.28334 114.676 5.365C114.637 5.44667 115.611 5.71529 116.869 6.02005C122.02 7.1967 123.44 7.58001 123.283 7.90667C123.204 8.07001 123.406 8.06688 123.768 7.93968C124.614 7.6429 132.816 10.1908 139.117 12.7276C143.914 14.6393 144.321 14.8356 144.408 15.2801C144.452 15.6036 144.654 15.6005 144.935 15.434C145.216 15.2676 145.907 15.5001 146.965 16.0106C147.86 16.4425 148.674 16.8352 148.916 16.7504C149.157 16.6656 147.976 15.9949 146.227 15.2519C145.739 15.0163 145.371 14.7383 145.45 14.575C145.529 14.4116 146.91 14.8766 148.701 15.7405C151.712 17.1935 152.61 17.828 151.68 17.8829C151.357 17.9285 151.318 18.0101 151.565 18.3305C151.769 18.53 152.095 18.6871 152.418 18.6416C152.822 18.6353 152.862 18.5536 152.617 18.4358C152.455 18.3573 152.371 18.1154 152.45 17.9521C152.568 17.7071 153.219 18.0212 158.517 21.1815C159.617 21.8129 160.475 22.5292 160.559 22.771C160.772 23.5783 161.593 24.5788 162.119 24.5301C162.321 24.527 162.402 24.5663 162.203 24.772C162.042 24.8961 161.924 25.1411 162.048 25.3013C162.171 25.4615 162.373 25.4584 162.452 25.295C162.531 25.1317 162.733 25.1286 162.817 25.3704C163.19 26.0536 163.717 26.2076 164.077 25.8778C164.277 25.6721 164.193 25.4302 163.867 25.2731C163.542 25.1161 163.295 24.7956 163.292 24.593C163.201 23.7434 164.469 24.8585 164.886 25.8653C165.096 26.47 165.261 26.7511 165.379 26.5061C165.416 26.2218 165.658 26.137 165.739 26.1763C165.902 26.2548 166.025 26.415 165.946 26.5784C165.868 26.7417 165.91 26.8626 166.154 26.9804C166.317 27.059 166.477 26.9349 166.556 26.7716C166.553 26.569 166.716 26.6475 166.839 26.8077C166.962 26.9679 166.965 27.1705 166.844 27.2129C166.361 27.3825 167.02 28.3045 167.876 28.8181C168.569 29.2532 168.771 29.2501 168.805 28.7632C168.84 28.2763 168.921 28.3156 169.128 28.7177C169.254 29.0805 169.459 29.2799 169.701 29.1951C170.063 29.068 169.506 29.8061 168.944 30.139C168.503 30.4295 168.503 30.4295 169.068 30.2992C169.511 30.2113 169.674 30.2898 169.758 30.5317C169.847 31.1788 170.619 31.4505 170.611 30.8427C170.688 30.4768 170.808 30.4344 170.974 30.7155C171.179 30.915 171.223 31.2385 170.903 31.4867C170.582 31.7348 170.624 31.8557 170.989 31.9311C171.273 31.9673 171.722 32.2845 171.929 32.6866C172.218 33.128 172.341 33.2882 172.459 33.0432C172.538 32.8798 172.494 32.5563 172.289 32.3568C172.084 32.1574 172 31.9155 172.079 31.7521C172.237 31.4255 173.142 32.6678 173.231 33.3149C173.234 33.5175 173.562 33.8772 173.888 34.0343C174.539 34.3484 174.591 35.2798 173.866 35.5342C173.504 35.6613 173.42 35.4195 173.373 34.8933C173.368 34.4881 173.16 34.0861 172.997 34.0075C172.835 33.929 172.714 33.9714 172.759 34.2949C172.761 34.4975 172.601 34.6216 172.357 34.5038C172.113 34.386 171.989 34.2258 172.068 34.0624C172.147 33.8991 171.903 33.7813 171.538 33.7059C171.091 33.5912 170.968 33.431 171.204 32.941C171.441 32.451 171.399 32.3301 170.955 32.418C170.39 32.5483 168.844 31.8022 168.676 31.3185C168.634 31.1975 168.143 30.7593 167.411 30.4059C166.678 30.0525 166.308 29.5719 166.306 29.3693C166.303 29.1667 165.487 28.5714 164.549 28.0185C163.688 27.0997 162.79 26.4651 162.667 26.3049C162.583 26.063 162.215 25.785 161.89 25.628C160.63 25.1206 160.302 24.7609 160.661 24.4311C160.861 24.2254 160.858 24.0228 160.777 23.9835C160.614 23.905 160.454 24.029 160.336 24.274C160.218 24.519 159.937 24.6855 159.653 24.6494C159.369 24.6132 159.207 24.5347 159.286 24.3714C159.325 24.2897 158.427 23.6551 157.125 23.0268C152.118 20.5105 148.29 18.4623 148.125 18.1811C148.083 18.0602 147.839 17.9424 147.637 17.9455C147.193 18.0334 145.444 17.2905 141.58 15.5265C140.277 14.8982 139.141 14.5511 139.101 14.6327C138.944 14.9594 136.867 13.8567 136.618 13.3337C136.492 12.9709 136.289 12.974 136.132 13.3007C135.974 13.6274 135.691 13.5912 134.998 13.1562C134.386 12.7603 134.181 12.5609 134.42 12.2735C134.62 12.0677 134.297 12.1133 133.732 12.2436C133.089 12.5372 132.522 12.465 131.91 12.0691C131.422 11.8335 130.852 11.5587 130.529 11.6042C130.327 11.6073 129.88 11.4926 129.757 11.3324C129.552 11.133 128.78 10.8612 128.011 10.7921C127.079 10.6444 126.388 10.4119 126.223 10.1307C125.976 9.81034 125.814 9.73181 125.493 9.97993C125.294 10.1857 124.971 10.2312 124.726 10.1134C124.482 9.99558 124.522 9.91391 124.965 9.82599C125.491 9.77733 125.53 9.69567 125.123 9.49932C124.879 9.38152 124.068 9.19143 123.256 9.00135C122.08 8.73586 121.836 8.61804 121.747 7.97097C121.66 7.5265 121.455 7.32703 121.335 7.36943C121.214 7.41182 121.135 7.57516 121.298 7.6537C121.461 7.73223 121.505 8.05577 121.387 8.30077C121.229 8.62744 121.148 8.58817 121.145 8.38556C121.182 8.1013 121.019 8.02276 120.373 8.11381C119.93 8.20174 119.444 8.16873 119.281 8.09019C119.118 8.01165 118.958 8.13572 118.879 8.29905C118.882 8.50165 118.719 8.42312 118.596 8.26291C118.472 8.10271 118.107 8.0273 117.784 8.07283C117.341 8.16075 117.178 8.08222 117.212 7.59535C117.165 7.06921 117.002 6.99066 116.396 7.00005C115.789 7.00944 115.545 6.89164 115.419 6.52883C115.335 6.28696 115.088 5.96655 115.007 5.92729C114.844 5.84875 114.928 6.09062 115.135 6.49269C115.343 6.89477 115.792 7.21205 115.994 7.20892C116.317 7.16339 116.278 7.24506 115.997 7.41152C115.716 7.57798 115.351 7.50257 115.022 7.14289C114.655 6.86488 114.329 6.70781 114.251 6.87115C114.172 7.03448 113.807 6.95907 113.439 6.68106C112.749 6.44858 112.628 6.49098 112.512 6.93858C112.478 7.42545 112.397 7.38618 112.229 6.90243C111.979 6.37943 111.859 6.42182 111.215 6.71548C110.853 6.84268 110.732 6.88507 110.892 6.76101C111.052 6.63694 111.05 6.43434 110.887 6.3558C110.724 6.27727 110.401 6.32279 110.202 6.52853C109.963 6.81592 109.839 6.65572 109.548 6.01177C109.38 5.52803 109.01 5.04742 108.766 4.92961C108.44 4.77254 108.401 4.85421 108.692 5.49815C108.942 6.02116 108.984 6.14209 108.574 5.74315C108.369 5.54368 108.125 5.42587 108.128 5.62848C107.894 6.32107 107.613 6.48754 107.122 6.04933C106.836 5.81059 106.471 5.73518 106.232 6.02257C105.951 6.18904 105.628 6.23456 105.423 6.03509C104.972 5.51521 103.837 5.37065 103.924 5.81513C103.926 6.01773 103.643 5.98159 103.236 5.78524C102.829 5.5889 102.582 5.26849 102.661 5.10516C102.779 4.86016 102.577 4.86329 102.257 5.11142C101.976 5.27788 101.451 5.32654 101.044 5.13019C100.555 4.89458 100.435 4.93698 100.723 5.37832C100.97 5.69873 100.768 5.70186 100.033 5.14584C99.1769 4.63222 99.0141 4.55368 98.9799 5.04055C98.9036 5.40648 98.7015 5.40962 97.8876 5.01693C97.3179 4.74205 96.5879 4.59123 96.2256 4.71842C95.5008 4.97281 95.1359 4.89741 95.5351 4.48594C95.6139 4.32261 95.5299 4.08074 95.2437 3.842C94.8368 3.64566 94.7554 3.60638 94.8814 3.96919C95.1333 4.6948 94.8943 4.9822 94.1618 4.62878C93.1037 4.11829 91.6071 4.10092 91.6936 4.5454C91.6962 4.748 91.494 4.75113 91.1659 4.39145C90.4702 3.75377 87.9233 3.83371 88.4168 4.47453C88.6215 4.674 88.4588 4.59547 88.1332 4.43839C87.7657 4.16038 87.3613 4.16664 87.1617 4.37237C86.9621 4.5781 86.6786 4.54196 86.5552 4.38176C86.2664 3.94041 85.0508 3.75659 85.0979 4.28273C85.1005 4.48533 84.9797 4.52773 84.8169 4.44919C84.1239 4.01411 83.6775 3.89943 83.6827 4.30463C83.6459 4.5889 83.1995 4.47423 82.5064 4.03914C82.3436 3.9606 82.1415 3.96373 82.2254 4.2056C82.228 4.4082 82.0678 4.53227 81.7843 4.49613C81.3799 4.50239 81.3379 4.38145 81.4981 4.25739C81.6583 4.13332 81.6557 3.93072 81.4115 3.81291C81.1674 3.69511 80.805 3.8223 80.6868 4.0673C80.5686 4.3123 80.4084 4.43636 80.243 4.15523C80.1197 3.99502 79.9175 3.99815 79.8387 4.16148C79.7599 4.32482 79.3949 4.24941 79.0694 4.09234C78.8646 3.89286 78.4602 3.89912 78.4628 4.10172C78.384 4.26506 77.9822 4.47392 77.4965 4.44091C76.89 4.4503 76.6458 4.33249 76.764 4.08749C76.8428 3.92416 76.7194 3.76395 76.5173 3.76708C76.2757 3.85188 76.1969 4.01521 76.2388 4.13614C76.2834 4.45968 74.666 4.48472 73.9755 4.25223C73.8127 4.1737 73.4897 4.21922 73.2087 4.38568C72.8464 4.51288 72.1978 4.40133 71.7909 4.20499C71.3026 3.96938 70.7354 3.8971 70.3731 4.02429C69.8505 4.27555 69.9319 4.31482 70.3782 4.4295C70.7826 4.42324 70.218 4.55356 69.1677 4.65087C68.036 4.70892 67.3481 4.67904 67.3035 4.3555C67.259 4.03196 67.0174 4.11676 67.0226 4.52196C67.0645 4.6429 64.8431 4.87992 62.178 5.20487C59.4708 5.40888 56.8871 5.7731 56.2805 5.78249C55.7554 5.83114 55.2696 5.79813 55.309 5.71647C55.3484 5.6348 55.0255 5.68033 54.5423 5.84992C54.0591 6.01951 53.534 6.06816 53.492 5.94723C53.3686 5.78703 53.1665 5.79016 52.9249 5.87495C52.6439 6.04141 52.7253 6.08069 53.0482 6.03516C53.4526 6.0289 53.4526 6.0289 52.9694 6.19849C52.4863 6.36808 52.4049 6.32881 52.3183 5.88434C52.3132 5.47914 52.2318 5.43987 51.9954 5.92987C51.6801 6.5832 50.3488 6.84698 49.9787 6.36637C49.8948 6.12449 49.774 6.16689 49.8579 6.40876C49.9445 6.85324 43.3694 8.21138 42.9205 7.8941C42.7971 7.7339 42.6763 7.77629 42.6789 7.9789C42.7655 8.42337 40.7463 8.65726 40.1346 8.26145C39.8484 8.02271 39.6068 8.1075 39.6488 8.22844C39.6514 8.43104 39.4912 8.55511 39.1682 8.60063C38.8847 8.56449 38.6037 8.73095 38.6877 8.97282C38.6902 9.17543 38.4067 9.13929 38.1625 9.02148C37.9183 8.90367 37.4326 8.87066 37.3538 9.034C37.275 9.19733 37.3983 9.35753 37.6399 9.27274C37.9235 9.30888 37.6425 9.47534 37.0386 9.68733C36.516 9.93859 35.7493 10.072 35.3423 9.8757C34.9354 9.67936 34.6124 9.72488 34.5336 9.88822C34.4548 10.0516 34.5782 10.2118 34.8197 10.127C35.1427 10.0814 35.1033 10.1631 34.8223 10.3296C34.0976 10.5839 33.2785 9.78606 33.6357 9.25366C34.0324 8.6396 33.951 8.60032 32.9452 9.02117C32.2205 9.27556 32.1811 9.35723 32.6668 9.39024C33.1132 9.50491 33.1552 9.62585 32.9581 10.0342C32.8005 10.3609 32.4801 10.609 32.3174 10.5304C32.1152 10.5336 31.7948 10.7817 31.6372 11.1084C31.3982 11.3958 31.0358 11.523 30.8311 11.3235C30.5869 11.2057 30.3847 11.2088 30.2665 11.4538C30.2691 11.6564 29.9461 11.7019 29.4998 11.5873C29.0114 11.3516 28.8881 11.1914 29.0877 10.9857C29.8072 10.3261 28.8357 10.2601 28.0742 10.7988C27.5148 11.3343 27.5619 11.8604 28.1633 11.4458C28.3235 11.3218 28.6885 11.3972 28.9746 11.6359C29.4655 12.0741 29.4261 12.1558 28.7434 12.5311C28.2208 12.7824 27.6562 12.9127 27.2493 12.7164C26.8424 12.52 26.3986 12.6079 26.199 12.8137C25.8392 13.1435 25.8392 13.1435 26.4038 13.0131C26.7267 12.9676 26.9289 12.9645 26.8501 13.1278C26.6531 13.5362 25.6448 13.7544 25.5188 13.3916C25.4768 13.2707 25.356 13.3131 25.3192 13.5973C25.2824 13.8816 25.0408 13.9664 24.9174 13.8062C24.6733 13.6884 24.4317 13.7732 24.3135 14.0182C24.1559 14.3448 23.9537 14.348 23.7489 14.1485C23.4208 13.7888 23.3814 13.8705 23.4285 14.3966C23.3943 14.8835 23.2761 15.1285 22.9531 15.174C22.7509 15.1772 22.709 15.0562 22.9505 14.9714C23.1107 14.8474 23.1082 14.6448 22.864 14.527C22.5384 14.3699 22.2969 14.4547 22.1786 14.6997C22.0604 14.9447 21.9002 15.0687 21.7375 14.9902C21.5747 14.9117 21.2149 15.2415 20.8157 15.6529C19.9805 16.7601 17.252 18.464 16.2805 18.398C15.8762 18.4042 15.435 18.6948 15.238 19.1031C14.9622 19.6748 14.7206 19.7596 13.9067 19.3669C13.4184 19.1313 12.9694 18.814 13.0482 18.6507C13.127 18.4873 12.9643 18.4088 12.7621 18.4119C12.5205 18.4967 12.3603 18.6208 12.4863 18.9836C12.6516 19.2647 12.4966 19.794 12.2182 20.163C11.9398 20.5321 12.1814 20.4473 12.7014 19.9935C13.2213 19.5396 13.5417 19.2915 13.5023 19.3731C13.4235 19.5365 13.3447 19.6998 13.3867 19.8207C13.3473 19.9024 13.3525 20.3076 13.4364 20.5495C13.4416 20.9547 13.4022 21.0364 12.9978 21.0426C12.6329 20.9672 12.4333 21.1729 12.4359 21.3755C12.441 21.7807 10.9153 22.6555 10.5084 22.4591C10.427 22.4198 10.5032 22.0539 10.7002 21.6456C10.9366 21.1556 10.8921 20.832 10.4457 20.7174C9.75522 20.4849 9.27463 20.8571 9.84435 21.1319C10.0071 21.2105 10.0097 21.4131 9.84952 21.5371C9.64734 21.5403 9.44516 21.5434 9.32178 21.3832C9.19841 21.223 9.1196 21.3863 9.08537 21.8732C9.09053 22.2784 9.13768 22.8045 9.34244 23.004C9.46582 23.1642 9.668 23.1611 9.58403 22.9192C9.58144 22.7166 9.82303 22.6318 10.1486 22.7889C10.6369 23.0245 10.5975 23.1062 9.99355 23.3182C9.51039 23.4878 9.23198 23.8568 9.15834 24.4254C9.0847 24.9939 8.96391 25.0363 8.95875 24.6311C8.83021 24.0657 7.9795 23.9573 8.02665 24.4834C8.16294 25.6566 7.00993 27.2145 6.55583 26.4921C6.43246 26.3319 6.23028 26.335 6.07009 26.4591C5.7891 26.6255 5.66573 26.4653 5.62116 26.1418C5.53719 25.8999 5.41381 25.7397 5.21163 25.7428C4.68907 25.9941 4.94614 27.1249 5.59725 27.4391C6.00419 27.6354 6.08817 27.8773 5.61275 28.6547C5.33693 29.2263 4.89833 29.7195 4.65674 29.8043C4.05279 30.0163 3.81637 30.5062 4.34152 30.4576C4.5437 30.4545 4.66708 30.6147 4.58827 30.778C4.50947 30.9413 4.2259 30.9052 4.02114 30.7057C3.61161 30.3068 3.61161 30.3068 3.90293 30.9507C3.9869 31.1926 4.03147 31.5161 3.82929 31.5192C3.6691 31.6433 3.71108 31.7643 3.99465 31.8004C4.19683 31.7973 4.40159 31.9967 4.36477 32.281C4.36735 32.4836 4.20716 32.6077 4.04438 32.5291C3.8816 32.4506 3.7214 32.5747 3.76339 32.6956C3.76597 32.8982 3.68717 33.0615 3.4036 33.0254C3.16202 33.1102 2.84163 33.3583 2.72342 33.6033C2.52641 34.0116 2.6078 34.0509 2.92818 33.8028C3.49016 33.4699 3.90226 34.0714 3.54764 34.8064C3.0748 35.7864 3.64902 39.5872 4.57012 42.0452C5.36526 44.1403 8.12922 48.3936 9.0245 48.8255C9.18727 48.904 9.67819 49.3423 9.96692 49.7836C11.366 51.6668 19.3602 56.9333 25.2621 59.8816C28.6804 61.5309 37.502 65.0824 40.8312 66.0847C41.5217 66.3171 41.5637 66.4381 41.2065 66.9705C40.8887 67.4212 40.8519 67.7055 41.096 67.8233C41.2588 67.9018 41.419 67.7777 41.5372 67.5327C41.6083 66.7616 42.333 66.5072 43.2677 66.8575C43.7954 67.0115 44.5673 67.2832 45.0951 67.4371C45.6228 67.5911 46.1111 67.8267 46.1137 68.0293C46.1163 68.2319 45.9955 68.2743 45.7933 68.2774C44.0054 67.6161 43.0313 67.3475 42.7503 67.514C42.5901 67.638 42.5507 67.7197 42.5901 67.638C42.6715 67.6773 42.8762 67.8768 43.123 68.1972C43.4117 68.6385 43.4931 68.6778 43.488 68.2726C43.4434 67.9491 43.727 67.9852 44.2573 68.3417C44.7062 68.659 45.2339 68.813 45.4361 68.8098C46.1634 68.758 48.6839 69.7728 48.7285 70.0963C48.7311 70.2989 48.6916 70.3806 48.5289 70.302C47.7964 69.9486 47.392 69.9549 47.56 70.4386ZM4.48106 28.7127C4.52304 28.8336 4.76462 28.7488 4.96422 28.5431C5.36342 28.1317 5.27945 27.8898 4.79886 28.262C4.63867 28.386 4.43907 28.5918 4.48106 28.7127ZM162.987 26.0568C162.909 26.2201 163.032 26.3803 163.276 26.4981C163.52 26.6159 163.722 26.6128 163.722 26.6128C163.762 26.5311 163.638 26.3709 163.434 26.1715C163.229 25.972 163.027 25.9751 162.987 26.0568ZM159.882 23.5516C159.719 23.473 159.559 23.5971 159.561 23.7997C159.564 24.0023 159.648 24.2442 159.729 24.2834C159.811 24.3227 159.931 24.2803 160.05 24.0353C160.168 23.7903 160.044 23.6301 159.882 23.5516ZM157.018 20.9615C157.144 21.3243 157.797 21.8411 158.53 22.1945C158.855 22.3516 158.939 22.5935 158.86 22.7568C158.782 22.9201 158.944 22.9987 159.267 22.9531C159.509 22.8683 159.874 22.9437 159.916 23.0647C159.958 23.1856 160.039 23.2249 160.118 23.0616C160.197 22.8982 159.99 22.4962 159.703 22.2574C158.926 21.5805 156.892 20.5987 157.018 20.9615ZM154.127 19.4662C154.534 19.6626 154.818 19.6987 154.776 19.5778C154.773 19.3752 154.487 19.1364 154.04 19.0217C153.227 18.629 153.232 19.0342 154.127 19.4662ZM149.399 16.5808C149.162 17.0708 149.979 17.6661 150.625 17.575C151.069 17.4871 151.069 17.4871 150.785 17.451C150.501 17.4148 150.134 17.1368 149.887 16.8164C149.64 16.496 149.478 16.4175 149.399 16.5808ZM125.115 8.89152C125.601 8.92453 125.64 8.84286 125.396 8.72506C125.152 8.60725 124.706 8.49257 124.383 8.5381C123.737 8.62915 124.144 8.8255 125.115 8.89152ZM115.781 6.40163C115.905 6.56184 116.23 6.71892 116.351 6.67652C116.472 6.63412 116.349 6.47392 116.023 6.31684C115.697 6.15977 115.577 6.20216 115.781 6.40163ZM89.0892 3.2888C89.1338 3.61234 89.2152 3.6516 89.4568 3.56681C89.6169 3.44274 90.0607 3.35482 90.4651 3.34856C91.3132 3.25438 90.9062 3.05803 89.814 3.03441C89.3676 2.91973 89.0866 3.0862 89.0892 3.2888ZM85.0456 3.35138C85.0876 3.47232 85.3292 3.38752 85.5288 3.18179C85.928 2.77033 85.844 2.52846 85.3634 2.90065C85.1218 2.98545 85.0036 3.23045 85.0456 3.35138ZM75.0652 4.07325C75.5089 3.98533 75.7899 3.81887 75.7899 3.81887C75.9081 3.57387 75.5852 3.61939 75.0232 3.95232C74.5006 4.20358 74.5006 4.20358 75.0652 4.07325ZM72.8283 3.09467C73.1118 3.1308 73.3534 3.04601 73.3928 2.96434C73.511 2.71934 72.8625 2.6078 72.5815 2.77426C72.4213 2.89832 72.4633 3.01926 72.8283 3.09467ZM46.1715 5.93895C46.4551 5.97509 46.6967 5.89029 46.7361 5.80862C46.8543 5.56362 46.2058 5.45208 45.9248 5.61854C45.7646 5.7426 45.888 5.90281 46.1715 5.93895ZM42.5401 6.60308C42.9838 6.51516 43.2648 6.34869 43.2648 6.34869C43.383 6.10369 43.06 6.14922 42.4981 6.48215C41.9755 6.73341 41.9755 6.73341 42.5401 6.60308ZM38.9925 7.50908L39.9195 7.25157C40.4026 7.08198 40.8464 6.99405 40.8858 6.91238C41.004 6.66738 40.681 6.71291 39.8775 7.13063L38.9925 7.50908ZM34.7597 8.58781C34.8017 8.70874 35.7286 8.45123 36.6949 8.11204C37.782 7.73046 38.5462 7.39441 38.4254 7.4368C38.2626 7.35827 34.7177 8.46687 34.7597 8.58781ZM25.9813 11.6012C25.8631 11.8462 25.8657 12.0488 26.0285 12.1273C26.1912 12.2059 26.3514 12.0818 26.4696 11.8368C26.5879 11.5918 26.5853 11.3892 26.4225 11.3107C26.2991 11.1505 26.0995 11.3562 25.9813 11.6012ZM22.9273 13.148C22.7303 13.5563 23.82 13.3774 24.621 12.757C24.9414 12.5089 25.0202 12.3456 24.8574 12.267C24.6946 12.1885 24.4136 12.355 24.0932 12.6031C23.8542 12.8905 23.4919 13.0177 23.4105 12.9784C23.2477 12.8999 23.0061 12.9847 22.9273 13.148ZM21.4384 13.7384C21.1994 14.0258 20.2357 14.5676 19.3927 15.067C18.4684 15.5271 17.8276 16.0234 17.909 16.0627C18.0717 16.1412 18.6757 15.9292 19.2771 15.5146C19.9598 15.1393 20.5244 15.009 20.5664 15.1299C20.6897 15.2901 20.7686 15.1268 20.766 14.9242C20.8028 14.6399 21.0418 14.3525 21.4461 14.3463C21.8085 14.2191 22.1709 14.0919 22.2497 13.9285C22.5255 13.3569 21.8376 13.327 21.4384 13.7384ZM18.4135 14.3932C18.697 14.4293 19.1802 14.2597 19.5006 14.0116C19.821 13.7635 20.1439 13.718 20.2673 13.8782C20.3907 14.0384 20.3907 14.0384 20.3461 13.7148C20.3015 13.3913 20.5037 13.3882 20.8293 13.5452C21.2362 13.7416 21.2756 13.6599 21.1103 13.3788C20.9029 12.9767 20.9423 12.895 21.3073 12.9704C21.6722 13.0458 21.7116 12.9642 21.3047 12.7678C21.0605 12.65 20.496 12.7804 19.934 13.1133C19.4534 13.4855 19.175 13.8545 19.2564 13.8938C19.4192 13.9723 19.1382 14.1388 18.6944 14.2267C18.2507 14.3147 18.1299 14.3571 18.4135 14.3932ZM17.2869 14.8564C17.1687 15.1014 17.2107 15.2224 17.4129 15.2192C17.5337 15.1768 17.7753 15.0921 17.8541 14.9287C17.9329 14.7654 17.8909 14.6445 17.7281 14.5659C17.5653 14.4874 17.4051 14.6114 17.2869 14.8564ZM15.7005 17.3127C15.7425 17.4336 16.0654 17.3881 16.3464 17.2216C16.7088 17.0945 16.7876 16.9311 16.6248 16.8526C16.2993 16.6955 15.5351 17.0316 15.7005 17.3127ZM15.5222 16.0186C15.685 16.0971 15.9266 16.0123 16.1656 15.7249C16.7644 15.1077 16.6016 15.0292 15.9188 15.4045C15.517 15.6133 15.3594 15.94 15.5222 16.0186ZM14.0146 18.3115C13.8964 18.5565 13.8989 18.7591 14.0591 18.635C14.1799 18.5926 14.4661 18.8314 14.6314 19.1125C14.7994 19.5962 14.8782 19.4329 14.7102 18.9492C14.4532 17.8183 14.2904 17.7398 14.0146 18.3115ZM5.93638 25.4884C5.93896 25.691 6.3065 25.9691 6.67146 26.0445C6.99701 26.2015 7.35939 26.0743 7.3174 25.9534C7.31482 25.7508 7.19144 25.5906 6.98927 25.5937C6.46411 25.6424 6.78192 25.1917 7.38588 24.9797C7.74825 24.8525 7.70627 24.7315 7.38071 24.5745C6.81099 24.2996 5.80784 24.923 5.93638 25.4884ZM2.39529 33.2436C2.3927 33.041 2.30873 32.7992 2.22734 32.7599C2.14596 32.7206 2.02516 32.763 1.90696 33.008C1.82815 33.1714 1.91212 33.4132 2.0749 33.4918C2.23767 33.5703 2.39787 33.4462 2.39529 33.2436ZM150.961 66.1634C150.84 66.2058 150.641 66.4115 150.562 66.5748C150.483 66.7382 150.646 66.8167 150.927 66.6502C151.168 66.5654 151.368 66.3597 151.326 66.2388C151.245 66.1995 151.082 66.121 150.961 66.1634ZM116.128 5.05883C116.979 5.16725 117.67 5.39974 117.793 5.55994C117.916 5.72014 117.998 5.75941 118.076 5.59608C118.155 5.43274 118.52 5.50815 118.846 5.66523C119.171 5.8223 119.901 5.97312 120.348 6.0878C122.375 6.46171 131.997 9.39293 134.436 10.3684C137.119 11.4616 141.627 12.932 141.869 12.8472C141.99 12.8048 141.134 12.2911 139.913 11.7021C138.692 11.1131 137.676 10.7235 137.555 10.7659C137.435 10.8083 136.379 10.5004 135.321 9.98994C133.328 9.12915 124.963 6.50269 124.559 6.50895C124.438 6.55135 123.79 6.4398 123.181 6.24659C122.572 6.05337 120.868 5.63393 119.326 5.29303C117.785 4.95213 116.244 4.61123 115.879 4.53582C114.012 4.03785 113.162 3.92943 113.043 4.17443C112.925 4.41943 113.616 4.65191 116.128 5.05883ZM109.935 74.4582C109.935 74.4582 109.329 74.4676 108.683 74.5586C108.076 74.568 107.593 74.7376 107.677 74.9795C107.884 75.3816 109.3 75.3597 109.497 74.9513C109.575 74.788 109.738 74.8665 109.862 75.0267C109.946 75.2686 110.066 75.2262 110.103 74.9419C110.059 74.6184 110.056 74.4158 109.935 74.4582ZM71.3506 74.3664C71.1878 74.2879 70.9068 74.4543 70.7886 74.6993C70.5916 75.1077 70.5916 75.1077 70.5051 74.6632C70.4605 74.3397 70.2557 74.1402 70.1349 74.1826C70.0142 74.225 69.8959 74.47 69.9405 74.7935C70.0665 75.1563 70.2292 75.2349 70.673 75.1469C71.4791 74.9318 71.7575 74.5628 71.3506 74.3664ZM68.628 73.3548C68.7068 73.1915 68.9484 73.1067 69.1925 73.2245C69.4367 73.3423 69.6783 73.2575 69.7571 73.0942C69.8359 72.9308 69.8753 72.8492 69.7939 72.8099C69.7939 72.8099 68.9432 72.7015 68.0111 72.5538C67.079 72.4061 66.1469 72.2584 65.8633 72.2223C65.1754 72.1924 64.8918 72.1563 64.3221 71.8814C63.9966 71.7243 63.432 71.8546 63.1116 72.1028C62.6311 72.475 62.5916 72.5566 63.0774 72.5896C63.361 72.6258 63.6025 72.541 63.642 72.4593C63.7208 72.296 64.3299 72.4892 65.9551 73.072C66.2806 73.229 66.5222 73.1442 66.5616 73.0626C66.6404 72.8992 67.0868 73.0139 67.5751 73.2495C68.0634 73.4851 68.5492 73.5181 68.628 73.3548ZM68.4361 74.1684C68.0737 74.2955 67.6694 74.3018 67.546 74.1416C67.1759 73.661 67.026 74.5955 67.2779 75.3211C67.3645 75.7655 67.5693 75.965 67.6481 75.8017C67.7269 75.6384 68.1312 75.6321 68.5382 75.8284C69.3521 76.2211 69.5122 76.0971 69.2526 74.7636C69.2029 74.0349 69.1215 73.9956 68.4361 74.1684ZM107.543 77.1296C107.299 77.0118 107.138 77.1358 107.141 77.3384C107.144 77.541 107.267 77.7012 107.469 77.6981C108.034 77.5678 108.031 77.3652 107.543 77.1296ZM128.502 71.5365C128.339 71.458 128.058 71.6244 127.819 71.9118C127.58 72.1992 127.218 72.3264 126.974 72.2086C126.648 72.0515 124.711 72.3247 122.573 72.8036C122.534 72.8852 122.455 73.0486 122.497 73.1695C122.623 73.5323 124.117 73.3471 125.566 72.8383C126.17 72.6263 126.735 72.496 126.898 72.5745C127.061 72.6531 128.069 72.4348 129.237 72.0925C130.406 71.7502 131.414 71.5319 131.658 71.6498C131.984 71.8068 132.866 71.2258 132.74 70.863C132.698 70.742 131.811 70.9179 130.763 71.2178C129.634 71.4784 128.665 71.615 128.502 71.5365ZM58.1908 73.1516C57.8627 72.7919 57.7419 72.8343 57.9493 73.2364C58.0332 73.4783 58.238 73.6777 58.3588 73.6353C58.4796 73.5929 58.3562 73.4327 58.1908 73.1516ZM63.8674 74.2796C63.379 74.044 63.0929 73.8052 63.2531 73.6812C63.6943 73.3906 62.2319 72.8864 61.4651 73.0199C61.0214 73.1078 60.4936 72.9538 60.1261 72.6758C59.8399 72.4371 59.1494 72.2046 58.5429 72.214C58.0177 72.2627 57.4086 72.0695 57.2852 71.9092C57.1619 71.749 56.9597 71.7522 56.8809 71.9155C56.8021 72.0788 56.5999 72.082 56.4765 71.9218C56.3531 71.7616 56.109 71.6437 55.786 71.6893C55.5444 71.7741 54.9353 71.5809 54.5284 71.3845C54.1214 71.1882 53.4335 71.1583 53.0317 71.3671C52.5486 71.5367 52.265 71.5006 52.139 71.1378C51.7637 70.252 49.251 69.8451 49.18 70.6162C49.1432 70.9005 48.983 71.0245 48.6574 70.8675C48.4132 70.7496 48.0903 70.7952 48.0115 70.9585C47.9327 71.1218 47.9746 71.2428 48.0954 71.2004C48.2162 71.158 48.5024 71.3967 48.6677 71.6779C48.8751 72.0799 48.9565 72.1192 48.9119 71.7957C48.8648 71.2695 50.0307 70.7246 50.1986 71.2084C50.2406 71.3293 50.3614 71.2869 50.4402 71.1236C50.6766 70.6336 51.858 71.3043 51.9892 72.0723C52.0757 72.5167 52.1571 72.556 52.2753 72.311C52.3121 72.0267 52.5931 71.8603 52.8767 71.8964C53.1603 71.9326 53.2022 72.0535 53.0421 72.1776C52.8819 72.3016 52.845 72.5859 52.9684 72.7461C53.0524 72.988 53.1732 72.9456 53.21 72.6613C53.1654 72.3378 53.3676 72.3346 53.7746 72.531C54.1815 72.7273 54.3049 72.8875 54.0239 73.054C53.7429 73.2204 53.8243 73.2597 54.268 73.1718C55.0742 72.9567 54.9037 72.2703 53.9716 72.1226C53.5252 72.008 53.5252 72.008 53.969 71.92C54.2919 71.8745 54.7383 71.9892 55.0245 72.2279C55.3106 72.4667 55.5942 72.5028 55.673 72.3395C55.7518 72.1761 55.8726 72.1337 55.9565 72.3756C56.0799 72.5358 56.0431 72.8201 55.7621 72.9865C55.2815 73.3587 55.4443 73.4373 56.618 73.5002C57.3059 73.5301 57.5869 73.3636 57.6211 72.8767C57.6948 72.3082 57.8156 72.2658 58.2671 72.7857C58.5952 73.1453 58.7974 73.1422 58.7948 72.9396C58.7922 72.737 58.9104 72.492 59.1126 72.4889C59.3148 72.4857 59.3988 72.7276 59.2017 73.136C59.0047 73.5443 59.0519 74.0704 59.2592 74.4725C59.7133 75.195 59.9917 74.8259 59.7372 73.8977C59.4433 73.0512 59.6035 72.9271 60.4988 73.3591C60.9871 73.5947 61.4729 73.6277 61.6725 73.4219C62.1925 72.9681 62.5994 73.1644 62.5677 73.8539C62.5309 74.1382 62.4101 74.1806 62.2054 73.9811C62.0006 73.7816 61.7984 73.7848 61.7616 74.069C61.7248 74.3533 61.4412 74.3172 61.1157 74.1601C60.6667 73.8428 60.6273 73.9245 60.7559 74.4899C60.8424 74.9343 60.9658 75.0945 61.1654 74.8888C61.2836 74.6438 61.4858 74.6407 61.5278 74.7616C61.6511 74.9218 61.7719 74.8794 61.8507 74.7161C61.9296 74.5528 62.2131 74.5889 62.4993 74.8276C62.8668 75.1057 63.2318 75.1811 63.4733 75.0963C63.8751 74.8874 63.9565 74.9267 64.0037 75.4528C64.0902 75.8973 64.1716 75.9366 64.4474 75.3649C64.6838 74.8749 64.5999 74.633 63.8674 74.2796ZM50.9679 71.2775C50.7238 71.1597 50.6844 71.2414 50.8103 71.6042C50.8943 71.846 50.7787 72.2936 50.5791 72.4994C50.3007 72.8684 50.3007 72.8684 50.7024 72.6596C51.2644 72.3267 51.4563 71.5131 50.9679 71.2775ZM66.4092 73.7944C66.2858 73.6342 65.9234 73.7614 65.7238 73.9672C65.5242 74.1729 65.3666 74.4996 65.4086 74.6205C65.4506 74.7414 65.5714 74.699 65.6502 74.5357C65.729 74.3724 65.8498 74.33 65.9731 74.4902C66.2199 74.8106 65.4241 75.8361 65.0171 75.6398C64.8544 75.5612 64.6942 75.6853 64.6154 75.8486C64.5366 76.012 64.8201 76.0481 65.3427 75.7968C66.267 75.3367 66.8607 74.3143 66.4092 73.7944ZM111.137 76.7497C110.41 76.8015 110.418 77.4093 111.148 77.5601C111.513 77.6355 111.712 77.4298 111.628 77.1879C111.705 76.822 111.46 76.7042 111.137 76.7497ZM108.748 76.503C105.311 76.5562 104.381 76.6111 103.21 76.7508C102.483 76.8026 101.876 76.812 101.955 76.6487C102.034 76.4853 101.793 76.5701 101.472 76.8182C101.152 77.0664 100.868 77.0302 100.745 76.87C100.621 76.7098 100.38 76.7946 100.18 77.0004C99.4607 77.6599 99.8676 77.8563 100.792 77.3962C101.556 77.0601 101.638 77.0994 101.44 77.5077C101.283 77.8344 101.002 78.0009 100.679 78.0464C100.395 78.0102 100.114 78.1767 100.117 78.3793C100.12 78.5819 99.8779 78.6667 99.7152 78.5882C99.471 78.4704 99.345 78.1075 99.4213 77.7416C99.4975 77.3757 99.3715 77.0129 99.2088 76.9343C99.046 76.8558 98.9672 77.0191 99.0117 77.3427C99.0983 77.7871 99.0195 77.9505 98.7359 77.9143C98.5337 77.9175 98.3341 78.1232 98.3761 78.2441C98.3787 78.4467 98.2185 78.5708 98.0163 78.5739C97.8142 78.5771 97.6514 78.4985 97.7302 78.3352C97.9272 77.9269 97.0739 77.6158 96.7141 77.9456C96.5145 78.1514 96.5565 78.2723 96.9609 78.266C97.2444 78.3022 97.4072 78.3807 97.247 78.5048C97.1262 78.5472 96.5591 78.4749 96.1128 78.3602C95.6664 78.2455 95.0993 78.1733 95.0205 78.3366C94.8603 78.4607 94.6581 78.4638 94.4927 78.1827C93.9573 77.4209 93.5923 77.3455 93.2377 78.0805C93.0407 78.4888 92.7203 78.737 92.5575 78.6584C92.3947 78.5799 92.3921 78.3773 92.5523 78.2532C92.7125 78.1291 92.7913 77.9658 92.5472 77.848C92.3844 77.7695 92.1428 77.8543 92.0246 78.0993C91.7488 78.6709 91.2185 78.3144 91.4943 77.7427C91.6913 77.3344 91.6099 77.2951 91.2107 77.7066C90.6565 78.6473 89.769 78.8232 90.0054 78.3332C90.0842 78.1698 90.3258 78.085 90.4885 78.1636C90.6513 78.2421 90.6487 78.0395 90.4414 77.6374C90.2341 77.2354 89.9873 76.9149 89.8245 76.8364C89.6617 76.7579 89.6643 76.9605 89.9111 77.2809C90.1998 77.7222 90.121 77.8856 89.7192 78.0944C89.4382 78.2609 89.278 78.3849 89.4408 78.4635C89.6036 78.542 89.4434 78.6661 89.1598 78.63C88.8369 78.6755 88.3091 78.5215 87.8996 78.1226C87.4087 77.6844 87.0857 77.7299 86.6865 78.1414C86.2873 78.5528 86.0852 78.556 85.7176 78.2779C85.4315 78.0392 85.1873 77.9214 85.1899 78.124C85.2319 78.2449 84.8695 78.3721 84.3444 78.4208C83.1707 78.3579 83.0893 78.3186 83.4885 77.9072C83.8483 77.5774 83.2366 77.1816 82.714 77.4328C82.11 77.6448 81.9027 77.2427 82.4253 76.9915C83.0686 76.6978 83.1029 76.2109 82.4569 76.302C82.2547 76.3051 81.9763 76.6742 81.8213 77.2035C81.6295 78.017 81.6295 78.017 81.2961 77.2521C80.9629 76.4872 80.9628 76.4872 80.8498 77.1374C80.7762 77.706 80.293 77.8756 80.0043 77.4342C80.0043 77.4342 79.5999 77.4405 79.1142 77.4075C78.5076 77.4169 78.3448 77.3383 78.463 77.0933C78.5813 76.8483 78.3791 76.8514 78.0981 77.0179C77.8171 77.1844 77.3733 77.2723 77.25 77.1121C77.1266 76.9519 77.0058 76.9943 77.1292 77.1545C77.4179 77.5958 76.9373 77.968 76.6092 77.6083C76.4044 77.4089 76.2417 77.3303 76.2442 77.5329C76.2468 77.7355 76.0052 77.8203 75.6403 77.7449C75.2753 77.6695 75.152 77.5093 75.2727 77.4669C75.4329 77.3429 75.391 77.2219 75.2282 77.1434C75.0654 77.0648 74.8238 77.1496 74.745 77.313C74.6662 77.4763 74.464 77.4794 74.2593 77.28C74.0545 77.0805 73.8523 77.0836 73.8129 77.1653C73.7341 77.3286 73.2064 77.1747 72.6761 76.8181C72.1457 76.4616 71.3738 76.1898 70.9695 76.1961C70.363 76.2055 70.4024 76.1238 70.8461 76.0359C71.2085 75.9087 71.5289 75.6606 71.6051 75.2946C71.6813 74.9287 71.9229 74.8439 72.1671 74.9617C72.4112 75.0795 72.6134 75.0764 72.6922 74.913C72.8104 74.668 76.2946 75.141 77.0271 75.4944C77.2713 75.6122 77.2739 75.8148 77.0743 76.0206C76.5543 76.4744 76.9612 76.6707 78.1298 76.3284C78.8151 76.1557 78.8939 75.9924 78.4895 75.9986C78.1246 75.9232 77.9618 75.8447 78.0406 75.6814C78.1982 75.3547 80.1412 75.4867 80.2672 75.8495C80.3092 75.9705 80.43 75.9281 80.5088 75.7647C80.5876 75.6014 80.8711 75.6376 81.1573 75.8763C81.4434 76.115 81.8478 76.1088 82.0894 76.024C82.331 75.9392 83.6648 75.878 85.2035 76.0163C86.7027 76.2363 87.9972 76.2568 88.1574 76.1327C88.3175 76.0086 88.6011 76.0448 88.7639 76.1233C89.0081 76.2411 90.3839 76.3009 91.7178 76.2397C93.0516 76.1785 94.5089 76.2776 94.7531 76.3954C94.9972 76.5132 95.7245 76.4614 96.2497 76.4127C97.2186 76.2762 97.9931 76.7505 97.3917 77.1651C97.2315 77.2892 97.2735 77.4101 97.4363 77.4886C97.5991 77.5672 97.7987 77.3614 97.9143 76.9138C97.9879 76.3453 98.1087 76.3029 98.2741 76.584C98.4394 76.8652 98.5208 76.9045 98.4763 76.5809C98.4317 76.2574 101.422 76.0895 102.155 76.4429C102.318 76.5215 102.52 76.5183 102.559 76.4367C102.677 76.1917 103.082 76.1854 105.022 76.1149C105.629 76.1055 106.154 76.0568 106.314 75.9327C106.435 75.8903 106.839 75.8841 107.204 75.9595C107.569 76.0349 108.094 75.9862 108.457 75.8591C108.858 75.6502 109.181 75.6047 109.344 75.6832C109.993 75.7947 109.475 76.4512 108.748 76.503ZM84.6098 77.0387C84.7281 76.7937 84.7649 76.5094 84.5207 76.3916C84.3579 76.3131 84.1557 76.3162 84.0769 76.4796C83.9981 76.6429 84.0007 76.8455 84.1661 77.1266C84.3708 77.3261 84.4916 77.2837 84.6098 77.0387ZM86.5186 77.6576C86.3926 77.2948 86.3112 77.2555 86.277 77.7424C86.2008 78.1084 86.2848 78.3502 86.445 78.2262C86.5657 78.1838 86.6026 77.8995 86.5186 77.6576ZM87.8053 77.0703C87.8447 76.9886 87.8027 76.8677 87.5586 76.7499C87.3958 76.6714 87.1542 76.7562 87.0754 76.9195C86.9966 77.0828 87.12 77.243 87.3221 77.2399C87.6057 77.276 87.7659 77.152 87.8053 77.0703ZM89.1366 76.8065C89.134 76.6039 89.05 76.3621 88.9687 76.3228C88.8873 76.2835 88.7665 76.3259 88.6483 76.5709C88.5695 76.7343 88.6534 76.9761 88.8162 77.0547C89.0604 77.1725 89.2206 77.0484 89.1366 76.8065ZM92.6156 76.8743C92.2901 76.7172 91.8463 76.8051 91.6861 76.9292C91.2869 77.3406 91.5311 77.4585 92.5394 77.2402C93.2248 77.0675 93.2248 77.0675 92.6156 76.8743ZM95.8531 77.0268C94.963 77.0001 94.9236 77.0817 95.5721 77.1933C96.0184 77.3079 96.5436 77.2593 96.7458 77.2562C97.3103 77.1258 97.1476 77.0473 95.8531 77.0268ZM112.876 76.6823C112.792 76.4404 112.671 76.4828 112.673 76.6854C112.676 76.888 112.476 77.0937 112.314 77.0152C112.03 76.9791 111.991 77.0607 112.235 77.1785C112.684 77.4958 113.164 77.1236 112.876 76.6823ZM109.037 76.9443C108.07 77.2835 108.073 77.4861 109.165 77.5097C109.651 77.5428 110.095 77.4548 110.174 77.2915C110.289 76.8439 109.762 76.69 109.037 76.9443ZM122.121 75.4044C120.994 75.8676 120.955 75.9493 121.569 76.5477C121.937 76.8257 122.1 76.9043 122.134 76.4174C122.129 76.0122 122.25 75.9698 122.578 76.3295C122.906 76.6891 123.027 76.6468 123.021 76.2416C123.098 75.8756 123.218 75.8332 123.625 76.0296C123.951 76.1866 124.234 76.2228 124.313 76.0594C124.508 75.4485 122.967 75.1076 122.121 75.4044ZM113.797 76.0196C113.958 75.8955 114.034 75.5296 113.91 75.3694C113.787 75.2092 113.624 75.1306 113.545 75.2939C113.467 75.4573 112.7 75.5907 111.81 75.564C110.88 75.6189 110.114 75.7524 110.035 75.9157C109.877 76.2423 110.242 76.3178 111.615 76.1749C112.786 76.0352 112.949 76.1137 113.361 76.7153C113.731 77.1959 113.731 77.1959 113.606 76.8331C113.522 76.5912 113.598 76.2253 113.797 76.0196ZM129.557 74.9651C129.313 74.8473 128.99 74.8928 128.79 75.0985C128.47 75.3467 128.512 75.4676 129.118 75.4582C130.048 75.4033 130.127 75.24 129.557 74.9651ZM120.144 75.7592C119.818 75.6021 119.453 75.5267 119.293 75.6508C118.973 75.8989 120.07 76.3278 120.432 76.2006C120.674 76.1158 120.551 75.9556 120.144 75.7592ZM106.571 77.0636C106.571 77.0636 106.288 77.0274 106.085 77.0305C105.883 77.0337 105.723 77.1577 105.686 77.442C105.689 77.6446 105.568 77.687 105.282 77.4483C105.077 77.2488 104.833 77.131 104.754 77.2943C104.675 77.4576 104.555 77.5001 104.431 77.3398C104.308 77.1796 103.822 77.1466 103.297 77.1953C102.57 77.2471 102.331 77.5345 102.375 77.858C102.462 78.3025 102.462 78.3025 102.619 77.9758C102.895 77.4042 104.106 77.1828 104.355 77.7058C104.52 77.9869 104.885 78.0623 105.408 77.8111C106.295 77.6352 106.855 77.0997 106.571 77.0636ZM87.047 74.6909C86.7634 74.6547 86.4404 74.7003 86.3616 74.8636C86.2828 75.0269 86.4876 75.2264 86.9339 75.3411C87.2989 75.4165 87.7452 75.5312 87.908 75.6097C88.0708 75.6882 88.1916 75.6458 88.3098 75.4008C88.4674 75.0742 88.0605 74.8778 87.047 74.6909ZM103.799 75.3232C103.883 75.5651 105.863 75.4129 106.587 75.1585C107.352 74.8224 107.352 74.8224 105.773 74.7658C104.558 74.582 103.673 74.9604 103.799 75.3232ZM102.988 75.1331C102.83 75.4598 102.872 75.5807 103.071 75.375C103.232 75.2509 103.389 74.9243 103.347 74.8033C103.266 74.7641 103.106 74.8881 102.988 75.1331ZM100.236 75.0136C100.157 75.1769 99.9548 75.1801 99.7921 75.1015C99.6293 75.023 97.5655 74.9334 95.3809 74.8861C93.1964 74.8389 90.891 74.834 90.3238 74.7617C89.8381 74.7287 89.2735 74.8591 89.1947 75.0224C89.1159 75.1857 89.1185 75.3883 89.1185 75.3883C89.3627 75.5061 96.5229 75.6385 96.7645 75.5537C96.8853 75.5113 97.2897 75.505 97.6152 75.6621C97.9802 75.7375 98.3845 75.7312 98.424 75.6496C98.5841 75.5255 98.8677 75.5617 99.1119 75.6795C99.356 75.7973 100.083 75.7455 100.769 75.5728C101.898 75.3121 101.977 75.1488 100.761 74.9649C100.517 74.8471 100.275 74.9319 100.236 75.0136ZM110.103 78.0626C109.78 78.1082 109.659 78.1506 109.903 78.2684C110.066 78.3469 110.349 78.383 110.549 78.1773C110.951 77.9685 110.869 77.9292 110.103 78.0626ZM119.144 73.4646C118.419 73.719 117.813 73.7284 117.731 73.6891C117.689 73.5682 117.164 73.6168 116.599 73.7471C115.027 74.0957 115.68 74.6125 117.335 74.3032C118.101 74.1697 118.989 73.9938 119.23 73.9091C119.472 73.8243 120.037 73.6939 120.48 73.606C121.126 73.515 121.166 73.4333 120.759 73.2369C120.635 73.0767 119.869 73.2102 119.144 73.4646ZM113.814 74.1145C113.491 74.16 113.412 74.3233 113.535 74.4835C113.658 74.6437 113.903 74.7616 114.102 74.5558C114.543 74.2653 114.459 74.0234 113.814 74.1145ZM111.469 74.1913C110.581 74.3672 110.586 74.7724 111.437 74.8808C111.721 74.9169 112.083 74.7897 112.201 74.5447C112.438 74.0547 112.438 74.0547 111.469 74.1913ZM46.5601 68.144C46.4812 68.3073 46.6046 68.4675 46.8068 68.4644C47.009 68.4613 47.2506 68.3765 47.29 68.2948C47.3294 68.2131 47.2874 68.0922 47.0432 67.9744C46.8804 67.8959 46.6783 67.899 46.5601 68.144ZM50.2122 69.1007C50.052 69.2247 50.0546 69.4273 50.2988 69.5451C50.5429 69.6629 50.7451 69.6598 50.8633 69.4148C50.9421 69.2515 50.9395 69.0489 50.7768 68.9703C50.5746 68.9735 50.3724 68.9766 50.2122 69.1007ZM55.0432 70.5254C54.6362 70.3291 54.4761 70.4532 54.56 70.695C54.644 70.9369 54.8882 71.0547 55.2505 70.9275C55.6129 70.8003 55.5709 70.6794 55.0432 70.5254ZM53.4574 69.861C53.3366 69.9034 52.7695 69.8311 52.3231 69.7164C50.9421 69.2515 50.9867 69.575 52.4097 70.1609C53.3444 70.5112 53.7907 70.6259 53.9089 70.3809C54.1059 69.9726 53.9406 69.6914 53.4574 69.861ZM48.264 68.5634C47.2925 68.4974 47.1743 68.7424 48.109 69.0927C48.516 69.289 48.9597 69.2011 49.0385 69.0378C49.1173 68.8744 49.2355 68.6294 49.1147 68.6718C49.0334 68.6326 48.6684 68.5572 48.264 68.5634ZM84.781 74.6044C84.0931 74.5745 83.4866 74.5839 83.4052 74.5446C81.1366 74.2555 80.3279 74.268 80.1703 74.5947C80.0915 74.758 80.5378 74.8727 81.3071 74.9418C81.9951 74.9717 83.0874 74.9953 83.6545 75.0676C85.1117 75.1666 86.1621 75.0693 86.0781 74.8275C85.9967 74.7882 85.3876 74.595 84.781 74.6044ZM58.6902 71.0769C58.5274 70.9984 58.3672 71.1225 58.3698 71.3251C58.3724 71.5277 58.4563 71.7695 58.5377 71.8088C58.6191 71.8481 58.7399 71.8057 58.8581 71.5607C58.8555 71.3581 58.853 71.1555 58.6902 71.0769ZM77.29 73.9097C76.4393 73.8013 75.6306 73.8138 75.389 73.8986C75.1475 73.9834 74.7011 73.8687 74.3756 73.7117C74.05 73.5546 73.6037 73.4399 73.4829 73.4823C73.3621 73.5247 72.8763 73.4917 72.5114 73.4163C72.1464 73.3409 71.7421 73.3471 71.5819 73.4712C71.3797 73.4743 71.0567 73.5199 70.7312 73.3628C70.4056 73.2057 70.164 73.2905 70.1666 73.4931C70.1692 73.6957 70.4947 73.8528 70.7783 73.8889C71.1013 73.8434 72.1148 74.0304 73.0888 74.299C73.9815 74.5283 74.8716 74.5551 74.9504 74.3918C75.0292 74.2284 75.15 74.186 75.234 74.4279C75.3574 74.5881 75.5202 74.6666 75.8011 74.5002C75.9613 74.3761 76.4471 74.4091 76.854 74.6055C77.261 74.8018 77.6259 74.8772 77.7047 74.7139C77.7835 74.5505 78.0671 74.5867 78.4741 74.783C78.7996 74.9401 79.2853 74.9731 79.4061 74.9307C80.0075 74.5161 78.9101 74.0873 77.29 73.9097ZM61.4076 71.6833C61.0033 71.6896 60.6777 71.5325 60.5544 71.3723C60.5124 71.2514 60.3102 71.2545 60.2314 71.4178C60.0344 71.8262 61.9037 72.5267 62.3029 72.1153C62.6233 71.8671 62.3791 71.7493 61.4076 71.6833Z" fill="#00F5D8" fill-opacity="0.5"/>
</svg>
