<svg width="171" height="16" viewBox="0 0 171 16" fill="none" xmlns="http://www.w3.org/2000/svg">
<path d="M122.085 4.20283C122.148 4.03069 122.413 3.83482 122.584 3.89716C122.755 3.9595 122.778 4.16281 122.63 4.30378C122.481 4.44475 122.504 4.64806 122.761 4.74157C123.36 4.95976 123.805 4.53686 123.44 4.20887C123.3 4.06046 123.588 4.0679 124.187 4.28609C125.385 4.72248 126.015 4.8546 126.739 4.72852C126.973 4.61872 127.315 4.7434 127.424 4.97788C127.618 5.24353 127.649 5.15746 127.572 4.83691C127.418 4.19581 128.812 3.82641 129.169 4.44378C129.332 4.79549 129.908 4.81038 131.123 4.66801C132.945 4.45445 133.661 4.61774 133.877 5.0867C134.04 5.43842 135.107 5.43702 135.232 5.09274C135.295 4.9206 135.241 4.80336 135.07 4.74102C134.898 4.67868 134.907 4.3893 135.032 4.04503C135.189 3.61468 135.392 3.59095 135.554 3.94267C135.663 4.17715 135.74 4.4977 135.677 4.66984C135.224 5.38212 136.088 5.40445 136.712 4.75451L137.454 4.04966L137.802 4.95641C137.987 5.51144 138.181 5.77709 138.275 5.51888C138.338 5.34674 138.657 5.26811 138.914 5.36163C139.77 5.67333 140.066 5.39139 139.687 4.57071C139.339 3.66397 139.627 3.67141 140.06 4.60933C140.386 5.31277 141.809 5.92873 142.821 5.81009C143.226 5.76263 143.374 5.62167 143.118 5.52816C142.947 5.46581 142.753 5.20017 142.761 4.91079C142.801 4.53534 142.886 4.56651 143.197 4.77726C143.477 5.07408 143.594 5.01918 143.634 4.64373C143.642 4.35435 143.822 4.12731 144.024 4.10358C144.312 4.11103 144.335 4.31434 144.178 4.74469C143.717 5.74635 143.816 6.2702 144.455 6.11295C144.775 6.03432 145.693 6.17389 146.44 6.25111C147.156 6.41441 148.051 6.35066 148.285 6.24087C148.519 6.13107 148.924 6.08361 149.149 6.26319C149.289 6.4116 149.663 6.45021 149.811 6.30925C150.076 6.11338 150.162 6.14455 150.239 6.4651C150.316 6.78565 150.604 6.79309 151.297 6.75308C151.99 6.71306 152.278 6.7205 152.441 7.07222C152.603 7.42394 152.689 7.45511 152.783 7.19691C152.846 7.02477 153.165 6.94613 153.422 7.03964C153.678 7.13316 154.885 7.28016 156.122 7.3411C157.36 7.40204 159.026 7.61882 159.827 7.81329C160.714 8.03893 161.322 7.96774 161.384 7.7956C161.361 7.59229 161.937 7.60718 162.824 7.83282C164.481 8.33898 166.287 8.70418 166.637 8.53949C166.754 8.48459 166.615 8.33617 166.272 8.21149C165.93 8.08681 165.371 7.49317 165.24 7.05538C165 6.38311 165.031 6.29704 165.436 6.24958C165.81 6.28819 165.864 6.40544 165.568 6.68738C165.271 6.96931 165.325 7.08655 165.645 7.00793C165.964 6.9293 166.018 7.04654 165.785 7.15633C164.958 7.83001 169.019 8.91957 170.188 8.37058C170.656 8.15098 170.718 7.97885 170.425 7.18934C170.185 6.51707 170.045 6.36866 169.92 6.71294C169.794 7.05721 169.709 7.02605 169.632 6.7055C169.64 6.41612 169.5 6.26771 169.383 6.3226C169.267 6.3775 168.605 6.33145 168.092 6.14443C167.547 6.04347 166.66 5.81783 166.201 5.74805C165.742 5.67827 164.823 5.53871 164.193 5.40658C163.563 5.27446 162.527 5.18979 162.068 5.12001L161.119 5.06651L161.763 5.69132C162.214 6.05049 162.237 6.2538 161.894 6.12912C161.638 6.0356 161.273 5.70761 161.196 5.38706C161.064 4.94927 160.808 4.85576 160.574 4.96556C160.34 5.07536 159.422 4.93579 158.503 4.79623C157.616 4.57059 156.496 4.45475 156.059 4.58828C155.623 4.72181 154.961 4.67576 154.736 4.49618C153.741 4.03606 153.367 3.99745 153.467 4.52131C153.544 4.84186 153.458 4.81068 153.21 4.42779C152.962 4.04491 152.822 3.89649 152.557 4.09236C152.409 4.23333 152.121 4.22589 151.895 4.04631C151.53 3.71832 150.572 3.9542 150.065 4.54925C149.768 4.83118 149.768 4.83118 149.925 4.40084C150.082 3.97049 149.942 3.82208 149.537 3.86953C149.249 3.86209 148.704 3.76113 148.362 3.63645C148.02 3.51177 147.817 3.5355 147.84 3.73881C147.94 4.26267 147.044 4.32642 146.945 3.80255C146.867 3.482 146.728 3.3336 146.463 3.52946C146.229 3.63926 145.738 3.65555 145.193 3.5546C144.649 3.45364 144.018 3.32152 143.73 3.31408C143.442 3.30663 142.983 3.23685 142.758 3.05727C142.105 2.72183 141.543 3.19964 141.868 3.90308C141.999 4.34087 141.937 4.51301 141.586 4.6777C141.235 4.8424 141.15 4.81123 141.306 4.38089C141.745 3.17591 139.706 2.92051 138.894 4.08687C138.472 4.71308 138.355 4.76799 138.053 4.26786C137.89 3.91614 137.844 3.50952 138.024 3.28248C138.235 2.96937 138.126 2.73489 137.613 2.54787C136.757 2.23616 136.421 2.89355 137.128 3.34622C137.439 3.55698 137.322 3.61187 136.692 3.47975C136.062 3.34763 135.891 3.28528 136.102 2.97218C136.281 2.74514 136.141 2.59673 135.799 2.47205C135.457 2.34736 135.021 2.48089 134.872 2.62186C134.693 2.8489 134.319 2.81029 133.697 2.38878C132.99 1.93611 132.788 1.95984 132.919 2.39763C132.965 2.80425 132.965 2.80425 132.662 2.30412C132.36 1.80399 132.189 1.74164 131.681 2.33669C131.353 2.7047 130.854 3.01036 130.566 3.00292C130.161 3.05038 130.193 2.96431 130.575 2.71354C131.042 2.49395 130.903 2.34553 129.876 1.97149C129.191 1.72212 128.615 1.70724 128.584 1.79331C128.553 1.87938 128.264 1.87194 128.039 1.69236C127.728 1.48161 127.643 1.45044 127.72 1.77099C127.82 2.29485 125.547 2.14924 124.785 1.57933C124.474 1.36858 121.688 1.03595 118.465 0.836846C100.561 -0.0311695 77.6178 -0.102666 55.4818 0.802372C51.4407 0.987563 47.0261 1.13414 45.7028 1.04204C42.2149 1.0388 35.0825 1.46268 34.9884 1.72089C34.9571 1.80696 34.6377 1.88559 34.381 1.79208C33.7507 1.65996 25.1696 2.33601 24.2969 2.60306C23.9775 2.68168 23.0507 2.8315 22.0697 2.86407C21.0886 2.89665 16.2292 3.46613 11.2528 4.09051C1.67356 5.37789 0.48154 5.72358 0.461865 7.37378C0.44219 9.02398 1.78832 9.3194 5.69812 8.69642C7.55178 8.39679 11.8352 7.81242 15.2773 7.40904C18.7195 7.00565 21.4999 6.55622 21.4457 6.43898C21.3915 6.32174 21.594 6.298 21.9049 6.50876C22.2158 6.71951 23.0486 6.8279 23.7729 6.70182C24.4973 6.57573 25.8833 6.4957 26.7787 6.43196C30.0726 6.16954 31.5441 6.12068 34.3475 5.87456C42.6092 5.27713 63.2737 4.42095 78.5026 4.11937C90.7029 3.88435 97.8497 3.95316 110.438 4.24943C117.81 4.49782 121.991 4.46103 122.085 4.20283ZM146.95 4.58462C147.261 4.79537 147.603 4.92005 147.837 4.81026C147.986 4.66929 148.188 4.64556 148.445 4.73907C148.616 4.80142 148.468 4.94238 148.117 5.10708C147.415 5.43647 146.614 5.24201 146.545 4.63208C146.383 4.28036 146.554 4.3427 146.95 4.58462ZM142.236 3.15963C142.407 3.22197 142.687 3.51879 142.881 3.78444C143.075 4.05009 143.097 4.2534 142.926 4.19106C142.755 4.12872 142.476 3.8319 142.282 3.56625C142.119 3.21452 142.065 3.09728 142.236 3.15963ZM134.559 3.48255C134.73 3.54489 134.496 3.65469 134.06 3.78822C133.623 3.92174 133.25 3.88313 133.196 3.76589C133.173 3.56258 134.131 3.3267 134.559 3.48255ZM130.946 3.8236C131.927 3.79102 132.183 3.88453 131.887 4.16647C131.738 4.30744 131.279 4.23766 130.937 4.11298C130.338 3.89478 130.338 3.89478 130.946 3.8236ZM129.625 2.66004C129.648 2.86335 129.585 3.03549 129.297 3.02805C129.095 3.05178 128.955 2.90337 129.049 2.64516C129.323 2.15991 129.525 2.13619 129.625 2.66004ZM127.227 2.85872C127.312 2.88989 127.366 3.00713 127.443 3.32768C127.466 3.53099 127.404 3.70312 127.147 3.60961C126.976 3.54727 126.867 3.31279 126.93 3.14065C127.024 2.88245 127.141 2.82755 127.227 2.85872ZM124.269 2.46375C124.417 2.32278 124.737 2.24416 124.908 2.30649C125.079 2.36883 125.133 2.48607 124.868 2.68194C124.72 2.82291 124.4 2.90154 124.229 2.8392C124.089 2.69079 124.121 2.60472 124.269 2.46375ZM170.149 14.5959C169.992 15.0263 168.068 15.7874 167.905 15.4357C167.851 15.3185 167.594 15.225 167.36 15.3348C166.924 15.4683 164.939 15.3301 163.102 15.051C162.472 14.9189 160.69 14.757 159.078 14.6574C157.467 14.5579 155.108 14.3811 153.7 14.2578C152.291 14.1345 150.882 14.0113 150.562 14.0899C150.072 14.1062 150.018 13.9889 150.283 13.7931C150.463 13.566 150.346 13.6209 149.964 13.8717C149.581 14.1225 149.262 14.2011 149.154 13.9666C149.099 13.8494 148.843 13.7559 148.609 13.8657C148.375 13.9755 147.223 13.9457 146.017 13.7987C144.81 13.6517 143.487 13.5596 142.996 13.5759C142.506 13.5922 140.98 13.5238 139.657 13.4317C134.737 13.1018 130.363 12.873 126.82 12.7525C124.804 12.7004 122.99 12.6246 122.702 12.6171C122.531 12.5548 122.041 12.5711 121.753 12.5636C120.569 12.6199 112.963 12.4814 112.247 12.3181C111.788 12.2483 111.298 12.2646 111.064 12.3744C110.106 12.6102 106.766 12.466 106.23 12.0757C105.694 11.6854 105.408 10.6065 106.007 10.8247C106.178 10.887 106.295 10.8321 106.272 10.6288C106.095 9.78441 113.687 9.43031 114.332 10.0551C114.557 10.2347 114.643 10.2659 114.62 10.0626C114.543 9.74202 127.513 9.78752 127.792 10.0843C127.932 10.2328 128.103 10.2951 128.252 10.1541C128.517 9.95826 137.072 10.1503 142.249 10.5737C143.369 10.6895 145.3 10.7104 146.655 10.7165C147.924 10.6913 149.333 10.8146 149.761 10.9705C150.188 11.1263 150.593 11.0789 150.742 10.9379C150.89 10.7969 151.178 10.8044 151.403 10.984C151.629 11.1635 151.831 11.1398 151.894 10.9677C151.956 10.7955 152.159 10.7718 152.384 10.9514C152.61 11.131 152.866 11.2245 153.015 11.0835C153.1 11.1147 154.05 11.1682 155.171 11.284C156.206 11.3687 157.7 11.5231 158.447 11.6003C161.413 11.7059 163.997 12.0623 164.16 12.414C164.354 12.6797 164.385 12.5936 164.308 12.273C164.231 11.9525 164.348 11.8976 164.628 12.1944C164.853 12.374 165.11 12.4675 165.172 12.2954C165.235 12.1232 165.726 12.1069 166.387 12.153C166.963 12.1679 168.107 12.487 168.791 12.7364C169.989 13.1728 170.129 13.3212 169.91 13.9237C169.784 14.268 169.776 14.5573 169.978 14.5336C170.126 14.3926 170.212 14.4238 170.149 14.5959Z" fill="#00F5D8" fill-opacity="0.5"/>
</svg>
