<svg width="125" height="8" viewBox="0 0 125 8" fill="none" xmlns="http://www.w3.org/2000/svg">
<path d="M124.526 5.83981C124.26 6.03744 123.889 6.14381 123.707 6.0841C123.525 6.0244 122.99 6.01959 122.498 6.08615C122.006 6.15271 121.669 6.15614 121.763 6.07311C121.858 5.99007 121.77 5.84734 121.666 5.75607C121.501 5.6449 121.147 5.69979 120.881 5.89743C120.271 6.32426 119.284 6.05731 119.591 5.53097C119.736 5.29354 119.709 5.1707 119.51 5.16246C119.311 5.15423 119.268 5.08286 119.413 4.84542C119.541 4.65945 119.713 4.54486 119.834 4.58466C120.198 4.70407 120.397 4.7123 122.028 4.44948C123.857 4.1949 124.117 4.22304 124.753 4.94496C125.042 5.49601 125.042 5.49601 124.526 5.83981ZM116.145 4.57091C116.068 4.60247 115.791 4.6258 115.609 4.5661C115.229 4.49816 111.661 4.52422 111.351 4.65048C111.135 4.69371 110.461 4.70057 109.804 4.65596C109.147 4.61135 107.982 4.68477 107.23 4.7232C106.54 4.78152 105.866 4.78838 105.822 4.71701C105.778 4.64564 105.32 4.60927 104.845 4.62436C104.309 4.61956 103.437 4.61818 102.841 4.59347C102.244 4.56876 101.631 4.59552 101.415 4.63876C101.2 4.68199 100.863 4.68541 100.543 4.63738C100.102 4.54954 97.8813 4.56187 95.7823 4.61401C95.3678 4.64901 94.5728 4.61607 93.8989 4.62293C93.2251 4.62978 92.6119 4.65654 92.4738 4.66821C92.3187 4.73134 91.7224 4.70663 91.1261 4.68192C90.5298 4.65722 89.3809 4.67917 88.6296 4.71759C87.8782 4.75602 87.0663 4.77454 87.0056 4.75464C86.8069 4.7464 86.3318 4.76149 83.404 4.88362C82.8176 5.03322 81.4699 5.04694 80.4592 5.05723C78.8353 5.09427 75.9243 5.16493 72.7033 5.36186C72.1507 5.40852 70.4492 5.47714 68.9634 5.50252C61.8376 5.72893 59.9205 5.84078 59.6879 5.93547C59.5498 5.94714 59.2735 5.97047 59.1522 5.93067C58.9703 5.87096 58.1584 5.88949 57.2689 5.93957C56.3794 5.98966 55.6449 5.97662 55.6012 5.90525C55.5406 5.88535 56.1001 5.61292 56.7809 5.38029C58.8232 4.68241 60.2256 3.88844 60.4114 3.3223C60.8338 2.03562 59.6352 1.18605 57.0582 0.853211C54.5249 0.591742 47.0323 0.298673 44.2863 0.480506C43.7337 0.527168 42.7836 0.557357 42.1267 0.512747C36.9517 0.52438 21.4965 1.7794 13.4871 2.85606C12.9783 2.97408 12.0113 3.05574 11.4418 3.15387C7.52307 3.63489 4.41632 4.09739 4.16687 4.24356C4.07245 4.32659 3.73554 4.33002 3.39863 4.33345C3.01799 4.26551 2.52603 4.33207 2.29347 4.42677C2.00029 4.50157 1.56896 4.58803 1.29267 4.61136C0.955763 4.61479 0.861347 4.69783 0.992536 4.91193C1.07999 5.05467 1.07304 5.28044 0.995519 5.312C0.917999 5.34357 0.961727 5.41494 1.20423 5.49455C1.44672 5.57415 1.53418 5.71689 1.50039 5.81982C1.39902 6.12863 2.09968 6.2446 3.63616 6.06482C5.31079 5.87337 12.7 5.04925 15.9111 4.67802C17.0938 4.55313 20.4261 4.2217 23.4047 3.94517C37.4785 2.8068 50.1063 2.39102 57.1168 2.92495C57.3762 2.95309 56.1796 3.52952 54.4742 4.22397C51.2015 5.60122 50.7463 5.96492 51.3317 6.84125C51.7421 7.4321 52.0452 7.5316 53.9723 7.59406C55.64 7.62839 66.8426 7.25789 70.478 7.02597C71.6438 6.95254 72.6715 6.89079 72.7321 6.91069C72.8533 6.9505 74.2785 6.90521 75.7812 6.82836C77.0076 6.77484 83.1833 6.57862 84.4535 6.59647C85.1273 6.58961 86.2762 6.56766 87.105 6.49767C87.917 6.47915 88.6684 6.44072 88.8065 6.42906C88.9446 6.41739 89.9554 6.40711 91.1043 6.38515C92.2531 6.3632 93.9546 6.29459 94.9653 6.2843C96.9262 6.24382 97.3406 6.20883 100.13 6.09837C101.158 6.03661 102.108 6.00642 102.229 6.04622C102.29 6.06612 102.903 6.03937 103.456 5.99271C104.008 5.94605 104.605 5.97075 104.726 6.01056C104.847 6.05036 105.383 6.05516 105.918 6.05997C106.532 6.03321 107.067 6.03802 107.189 6.07782C107.31 6.11762 108.182 6.119 109.133 6.08881C110.083 6.05862 111.292 6.05657 111.828 6.06138C112.839 6.05109 114.402 5.99414 115.766 5.92896C116.595 5.85897 116.973 5.52684 116.899 4.93256C116.863 4.63542 116.455 4.44464 116.145 4.57091Z" fill="#00F5D8" fill-opacity="0.5"/>
</svg>
